<svg id="Layer_1" data-name="Layer 1" xmlns="http://www.w3.org/2000/svg" xmlns:xlink="http://www.w3.org/1999/xlink" viewBox="0 0 1024 107.08"><defs><style>.cls-1{fill:none;}.cls-2{clip-path:url(#clip-path);}.cls-3{fill:url(#linear-gradient);}.cls-4{fill:#084e99;}.cls-5{fill:#034d92;}.cls-6{fill:#08529b;}.cls-7{fill:#0a5ca3;}.cls-8{fill:#074b94;}.cls-9{fill:#1571b3;}.cls-10{fill:#0a6db2;}.cls-11{fill:#073d89;}.cls-12{fill:#0f71b2;}.cls-13{fill:#064c96;}.cls-14{fill:#1661a4;}.cls-15{fill:#07529b;}.cls-16{fill:#106bb0;}.cls-17{fill:#0d85c0;}.cls-18{fill:#1576b3;}.cls-19{fill:#08559d;}.cls-20{fill:#0d78b8;}.cls-21{fill:#0863a9;}.cls-22{fill:#1865a8;}.cls-23{fill:#0872b5;}.cls-24{fill:#1573b1;}.cls-25{fill:#106cad;}.cls-26{fill:#1278b5;}.cls-27{fill:#0f7ab9;}.cls-28{fill:#0a79ba;}.cls-29{fill:#1568aa;}.cls-30{fill:#0760a8;}.cls-31{fill:#1490cb;}.cls-32{fill:#1362a5;}.cls-33{fill:#1c6bac;}.cls-34{fill:#0761a7;}.cls-35{fill:#0c61a6;}.cls-36{fill:#065ca3;}.cls-37{fill:#0d7fb8;}.cls-38{fill:#1471b3;}.cls-39{fill:#0759a1;}.cls-40{fill:#0c6ab1;}.cls-41{fill:#0856a0;}.cls-42{fill:#104d95;}.cls-43{fill:#1363a6;}.cls-44{fill:#1a8ac7;}.cls-45{fill:#0e5ca4;}.cls-46{fill:#1264a6;}.cls-47{fill:#0960a5;}.cls-48{fill:#0b59a5;}.cls-49{fill:#0a84c1;}.cls-50{fill:#0b72b5;}.cls-51{fill:#086fb2;}.cls-52{fill:#0e7bbc;}.cls-53{fill:#0c5398;}.cls-54{fill:#0d72b4;}.cls-55{fill:#08549f;}.cls-56{fill:#1470af;}.cls-57{fill:#176eaf;}.cls-58{fill:#0d82be;}.cls-59{fill:#155ca2;}.cls-60{fill:#0957a1;}.cls-61{fill:#024d95;}.cls-62{fill:#055199;}.cls-63{fill:#1b72b5;}.cls-64{fill:#0869ae;}.cls-65{fill:#0a7ebd;}.cls-66{fill:#0c75b7;}.cls-67{fill:#1769ad;}.cls-68{fill:#0b61a9;}.cls-69{fill:#1c80c4;}.cls-70{fill:#167bb7;}.cls-71{fill:#175ca3;}.cls-72{fill:#0b7abb;}.cls-73{fill:#0d7dbe;}.cls-74{fill:#114386;}.cls-75{fill:#1569ad;}.cls-76{fill:#115da1;}.cls-77{fill:#0f62a7;}.cls-78{fill:#156dad;}.cls-79{fill:#1076b8;}.cls-80{fill:#0d61ab;}.cls-81{fill:#0a56a1;}.cls-82{fill:#044892;}.cls-83{fill:#0d599e;}.cls-84{fill:#1088c4;}.cls-85{fill:#0f5da5;}.cls-86{fill:#0b73b6;}.cls-87{fill:#0d86c1;}.cls-88{fill:#095499;}.cls-89{fill:#146eae;}.cls-90{fill:#0c5fa7;}.cls-91{fill:#0b65ab;}.cls-92{fill:#0e75b9;}.cls-93{fill:#147cbc;}.cls-94{fill:#0e7ebc;}.cls-95{fill:#4a7fa6;opacity:0.5;isolation:isolate;}</style><clipPath id="clip-path"><rect class="cls-1" x="-3.47" y="-6.53" width="1036.63" height="120.71"/></clipPath><linearGradient id="linear-gradient" x1="257.17" y1="-199.04" x2="257.17" y2="317.43" gradientTransform="matrix(1, 0, 0, -1, 0, 110)" gradientUnits="userSpaceOnUse"><stop offset="0" stop-color="#3982db"/><stop offset="0.44" stop-color="#51bbed"/><stop offset="0.81" stop-color="#62e4fa"/><stop offset="1" stop-color="#69f3ff"/></linearGradient></defs><title>bg-kh-algplus</title><g class="cls-2"><rect class="cls-3" x="-1.06" y="-207.43" width="516.47" height="516.47"/><polygon class="cls-4" points="38.68 106.92 -1.06 129.38 38.68 151.84 38.68 106.92"/><polygon class="cls-5" points="38.68 62 -1.06 84.46 38.68 106.92 38.68 62"/><polygon class="cls-6" points="-1.06 129.38 38.68 106.92 -1.06 84.46 -1.06 129.38"/><polygon class="cls-7" points="38.68 17.08 -1.06 39.54 38.68 62 38.68 17.08"/><polygon class="cls-8" points="-1.06 84.46 38.68 62 -1.06 39.54 -1.06 84.46"/><polygon class="cls-9" points="38.68 -27.8 -1.06 -5.34 38.68 17.12 38.68 -27.8"/><polygon class="cls-10" points="-1.06 39.58 38.68 17.12 -1.06 -5.34 -1.06 39.58"/><polygon class="cls-11" points="38.66 106.92 78.4 129.38 38.66 151.84 38.66 106.92"/><polygon class="cls-12" points="38.66 62 78.4 84.46 38.66 106.92 38.66 62"/><polygon class="cls-13" points="78.4 129.38 38.66 106.92 78.4 84.46 78.4 129.38"/><polygon class="cls-14" points="38.66 17.08 78.4 39.54 38.66 62 38.66 17.08"/><polygon class="cls-15" points="78.4 84.46 38.66 62 78.4 39.54 78.4 84.46"/><polygon class="cls-16" points="38.66 -27.8 78.4 -5.34 38.66 17.12 38.66 -27.8"/><polygon class="cls-17" points="78.4 39.58 38.66 17.12 78.4 -5.34 78.4 39.58"/><polygon class="cls-18" points="118.14 106.92 78.4 129.38 118.14 151.84 118.14 106.92"/><polygon class="cls-19" points="118.14 62 78.4 84.46 118.14 106.92 118.14 62"/><polygon class="cls-20" points="78.4 129.38 118.14 106.92 78.4 84.46 78.4 129.38"/><polygon class="cls-21" points="118.14 17.08 78.4 39.54 118.14 62 118.14 17.08"/><polygon class="cls-22" points="78.4 84.46 118.14 62 78.4 39.54 78.4 84.46"/><polygon class="cls-23" points="118.14 -27.8 78.4 -5.34 118.14 17.12 118.14 -27.8"/><polygon class="cls-24" points="78.4 39.58 118.14 17.12 78.4 -5.34 78.4 39.58"/><polygon class="cls-25" points="118.11 106.92 157.85 129.38 118.11 151.84 118.11 106.92"/><polygon class="cls-26" points="118.11 62 157.85 84.46 118.11 106.92 118.11 62"/><polygon class="cls-27" points="157.85 129.38 118.11 106.92 157.85 84.46 157.85 129.38"/><polygon class="cls-28" points="118.11 17.08 157.85 39.54 118.11 62 118.11 17.08"/><polygon class="cls-29" points="157.85 84.46 118.11 62 157.85 39.54 157.85 84.46"/><polygon class="cls-30" points="118.11 -27.8 157.85 -5.34 118.11 17.12 118.11 -27.8"/><polygon class="cls-31" points="157.85 39.58 118.11 17.12 157.85 -5.34 157.85 39.58"/><polygon class="cls-32" points="197.59 106.92 157.85 129.38 197.59 151.84 197.59 106.92"/><polygon class="cls-33" points="197.59 62 157.85 84.46 197.59 106.92 197.59 62"/><polygon class="cls-34" points="157.85 129.38 197.59 106.92 157.85 84.46 157.85 129.38"/><polygon class="cls-35" points="197.59 17.08 157.85 39.54 197.59 62 197.59 17.08"/><polygon class="cls-36" points="157.85 84.46 197.59 62 157.85 39.54 157.85 84.46"/><polygon class="cls-37" points="197.59 -27.8 157.85 -5.34 197.59 17.12 197.59 -27.8"/><polygon class="cls-38" points="157.85 39.58 197.59 17.12 157.85 -5.34 157.85 39.58"/><polygon class="cls-39" points="197.57 106.92 237.31 129.38 197.57 151.84 197.57 106.92"/><polygon class="cls-40" points="197.57 62 237.31 84.46 197.57 106.92 197.57 62"/><polygon class="cls-41" points="237.31 129.38 197.57 106.92 237.31 84.46 237.31 129.38"/><polygon class="cls-42" points="197.57 17.08 237.31 39.54 197.57 62 197.57 17.08"/><polygon class="cls-43" points="237.31 84.46 197.57 62 237.31 39.54 237.31 84.46"/><polygon class="cls-44" points="197.57 -27.8 237.31 -5.34 197.57 17.12 197.57 -27.8"/><polygon class="cls-45" points="237.31 39.58 197.57 17.12 237.31 -5.34 237.31 39.58"/><polygon class="cls-46" points="277.05 106.92 237.31 129.38 277.05 151.84 277.05 106.92"/><polygon class="cls-47" points="277.05 62 237.31 84.46 277.05 106.92 277.05 62"/><polygon class="cls-48" points="237.31 129.38 277.05 106.92 237.31 84.46 237.31 129.38"/><polygon class="cls-49" points="277.05 17.08 237.31 39.54 277.05 62 277.05 17.08"/><polygon class="cls-50" points="237.31 84.46 277.05 62 237.31 39.54 237.31 84.46"/><polygon class="cls-51" points="277.05 -27.8 237.31 -5.34 277.05 17.12 277.05 -27.8"/><polygon class="cls-52" points="237.31 39.58 277.05 17.12 237.31 -5.34 237.31 39.58"/><polygon class="cls-53" points="277.02 106.92 316.76 129.38 277.02 151.84 277.02 106.92"/><polygon class="cls-54" points="277.02 62 316.76 84.46 277.02 106.92 277.02 62"/><polygon class="cls-55" points="316.76 129.38 277.02 106.92 316.76 84.46 316.76 129.38"/><polygon class="cls-56" points="277.02 17.08 316.76 39.54 277.02 62 277.02 17.08"/><polygon class="cls-57" points="316.76 84.46 277.02 62 316.76 39.54 316.76 84.46"/><polygon class="cls-58" points="277.02 -27.8 316.76 -5.34 277.02 17.12 277.02 -27.8"/><polygon class="cls-59" points="316.76 39.58 277.02 17.12 316.76 -5.34 316.76 39.58"/><polygon class="cls-60" points="356.5 106.92 316.76 129.38 356.5 151.84 356.5 106.92"/><polygon class="cls-61" points="356.5 62 316.76 84.46 356.5 106.92 356.5 62"/><polygon class="cls-62" points="316.76 129.38 356.5 106.92 316.76 84.46 316.76 129.38"/><polygon class="cls-63" points="356.5 17.08 316.76 39.54 356.5 62 356.5 17.08"/><polygon class="cls-64" points="316.76 84.46 356.5 62 316.76 39.54 316.76 84.46"/><polygon class="cls-65" points="356.5 -27.8 316.76 -5.34 356.5 17.12 356.5 -27.8"/><polygon class="cls-66" points="316.76 39.58 356.5 17.12 316.76 -5.34 316.76 39.58"/><polygon class="cls-67" points="356.48 106.92 396.22 129.38 356.48 151.84 356.48 106.92"/><polygon class="cls-68" points="356.48 62 396.22 84.46 356.48 106.92 356.48 62"/><polygon class="cls-69" points="396.22 129.38 356.48 106.92 396.22 84.46 396.22 129.38"/><polygon class="cls-70" points="356.48 17.08 396.22 39.54 356.48 62 356.48 17.08"/><polygon class="cls-71" points="396.22 84.46 356.48 62 396.22 39.54 396.22 84.46"/><polygon class="cls-72" points="356.48 -27.8 396.22 -5.34 356.48 17.12 356.48 -27.8"/><polygon class="cls-73" points="396.22 39.58 356.48 17.12 396.22 -5.34 396.22 39.58"/><polygon class="cls-74" points="435.96 106.92 396.22 129.38 435.96 151.84 435.96 106.92"/><polygon class="cls-75" points="435.96 62 396.22 84.46 435.96 106.92 435.96 62"/><polygon class="cls-76" points="396.22 129.38 435.96 106.92 396.22 84.46 396.22 129.38"/><polygon class="cls-77" points="435.96 17.08 396.22 39.54 435.96 62 435.96 17.08"/><polygon class="cls-78" points="396.22 84.46 435.96 62 396.22 39.54 396.22 84.46"/><polygon class="cls-79" points="435.96 -27.8 396.22 -5.34 435.96 17.12 435.96 -27.8"/><polygon class="cls-80" points="396.22 39.58 435.96 17.12 396.22 -5.34 396.22 39.58"/><polygon class="cls-81" points="435.93 106.92 475.67 129.38 435.93 151.84 435.93 106.92"/><polygon class="cls-82" points="435.93 62 475.67 84.46 435.93 106.92 435.93 62"/><polygon class="cls-83" points="475.67 129.38 435.93 106.92 475.67 84.46 475.67 129.38"/><polygon class="cls-84" points="435.93 17.08 475.67 39.54 435.93 62 435.93 17.08"/><polygon class="cls-85" points="475.67 84.46 435.93 62 475.67 39.54 475.67 84.46"/><polygon class="cls-86" points="435.93 -27.8 475.67 -5.34 435.93 17.12 435.93 -27.8"/><polygon class="cls-87" points="475.67 39.58 435.93 17.12 475.67 -5.34 475.67 39.58"/><polygon class="cls-88" points="515.41 106.92 475.67 129.38 515.41 151.84 515.41 106.92"/><polygon class="cls-89" points="515.41 62 475.67 84.46 515.41 106.92 515.41 62"/><polygon class="cls-90" points="475.67 129.38 515.41 106.92 475.67 84.46 475.67 129.38"/><polygon class="cls-91" points="515.41 17.08 475.67 39.54 515.41 62 515.41 17.08"/><polygon class="cls-92" points="475.67 84.46 515.41 62 475.67 39.54 475.67 84.46"/><polygon class="cls-93" points="515.41 -27.8 475.67 -5.34 515.41 17.12 515.41 -27.8"/><polygon class="cls-94" points="475.67 39.58 515.41 17.12 475.67 -5.34 475.67 39.58"/><polygon class="cls-4" points="554.61 106.92 514.87 129.38 554.61 151.84 554.61 106.92"/><polygon class="cls-5" points="554.61 62 514.87 84.46 554.61 106.92 554.61 62"/><polygon class="cls-6" points="514.87 129.38 554.61 106.92 514.87 84.46 514.87 129.38"/><polygon class="cls-7" points="554.61 17.08 514.87 39.54 554.61 62 554.61 17.08"/><polygon class="cls-8" points="514.87 84.46 554.61 62 514.87 39.54 514.87 84.46"/><polygon class="cls-9" points="554.61 -27.8 514.87 -5.34 554.61 17.12 554.61 -27.8"/><polygon class="cls-10" points="514.87 39.58 554.61 17.12 514.87 -5.34 514.87 39.58"/><polygon class="cls-11" points="554.59 106.92 594.33 129.38 554.59 151.84 554.59 106.92"/><polygon class="cls-12" points="554.59 62 594.33 84.46 554.59 106.92 554.59 62"/><polygon class="cls-13" points="594.33 129.38 554.59 106.92 594.33 84.46 594.33 129.38"/><polygon class="cls-14" points="554.59 17.08 594.33 39.54 554.59 62 554.59 17.08"/><polygon class="cls-15" points="594.33 84.46 554.59 62 594.33 39.54 594.33 84.46"/><polygon class="cls-16" points="554.59 -27.8 594.33 -5.34 554.59 17.12 554.59 -27.8"/><polygon class="cls-17" points="594.33 39.58 554.59 17.12 594.33 -5.34 594.33 39.58"/><polygon class="cls-18" points="634.07 106.92 594.33 129.38 634.07 151.84 634.07 106.92"/><polygon class="cls-19" points="634.07 62 594.33 84.46 634.07 106.92 634.07 62"/><polygon class="cls-20" points="594.33 129.38 634.07 106.92 594.33 84.46 594.33 129.38"/><polygon class="cls-21" points="634.07 17.08 594.33 39.54 634.07 62 634.07 17.08"/><polygon class="cls-22" points="594.33 84.46 634.07 62 594.33 39.54 594.33 84.46"/><polygon class="cls-23" points="634.07 -27.8 594.33 -5.34 634.07 17.12 634.07 -27.8"/><polygon class="cls-24" points="594.33 39.58 634.07 17.12 594.33 -5.34 594.33 39.58"/><polygon class="cls-25" points="634.04 106.92 673.78 129.38 634.04 151.84 634.04 106.92"/><polygon class="cls-26" points="634.04 62 673.78 84.46 634.04 106.92 634.04 62"/><polygon class="cls-27" points="673.78 129.38 634.04 106.92 673.78 84.46 673.78 129.38"/><polygon class="cls-28" points="634.04 17.08 673.78 39.54 634.04 62 634.04 17.08"/><polygon class="cls-29" points="673.78 84.46 634.04 62 673.78 39.54 673.78 84.46"/><polygon class="cls-30" points="634.04 -27.8 673.78 -5.34 634.04 17.12 634.04 -27.8"/><polygon class="cls-31" points="673.78 39.58 634.04 17.12 673.78 -5.34 673.78 39.58"/><polygon class="cls-32" points="713.52 106.92 673.78 129.38 713.52 151.84 713.52 106.92"/><polygon class="cls-33" points="713.52 62 673.78 84.46 713.52 106.92 713.52 62"/><polygon class="cls-34" points="673.78 129.38 713.52 106.92 673.78 84.46 673.78 129.38"/><polygon class="cls-35" points="713.52 17.08 673.78 39.54 713.52 62 713.52 17.08"/><polygon class="cls-36" points="673.78 84.46 713.52 62 673.78 39.54 673.78 84.46"/><polygon class="cls-37" points="713.52 -27.8 673.78 -5.34 713.52 17.12 713.52 -27.8"/><polygon class="cls-38" points="673.78 39.58 713.52 17.12 673.78 -5.34 673.78 39.58"/><polygon class="cls-39" points="713.5 106.92 753.24 129.38 713.5 151.84 713.5 106.92"/><polygon class="cls-40" points="713.5 62 753.24 84.46 713.5 106.92 713.5 62"/><polygon class="cls-41" points="753.24 129.38 713.5 106.92 753.24 84.46 753.24 129.38"/><polygon class="cls-42" points="713.5 17.08 753.24 39.54 713.5 62 713.5 17.08"/><polygon class="cls-43" points="753.24 84.46 713.5 62 753.24 39.54 753.24 84.46"/><polygon class="cls-44" points="713.5 -27.8 753.24 -5.34 713.5 17.12 713.5 -27.8"/><polygon class="cls-45" points="753.24 39.58 713.5 17.12 753.24 -5.34 753.24 39.58"/><polygon class="cls-46" points="792.98 106.92 753.24 129.38 792.98 151.84 792.98 106.92"/><polygon class="cls-47" points="792.98 62 753.24 84.46 792.98 106.92 792.98 62"/><polygon class="cls-48" points="753.24 129.38 792.98 106.92 753.24 84.46 753.24 129.38"/><polygon class="cls-49" points="792.98 17.08 753.24 39.54 792.98 62 792.98 17.08"/><polygon class="cls-50" points="753.24 84.46 792.98 62 753.24 39.54 753.24 84.46"/><polygon class="cls-51" points="792.98 -27.8 753.24 -5.34 792.98 17.12 792.98 -27.8"/><polygon class="cls-52" points="753.24 39.58 792.98 17.12 753.24 -5.34 753.24 39.58"/><polygon class="cls-53" points="792.95 106.92 832.69 129.38 792.95 151.84 792.95 106.92"/><polygon class="cls-54" points="792.95 62 832.69 84.46 792.95 106.92 792.95 62"/><polygon class="cls-55" points="832.69 129.38 792.95 106.92 832.69 84.46 832.69 129.38"/><polygon class="cls-56" points="792.95 17.08 832.69 39.54 792.95 62 792.95 17.08"/><polygon class="cls-57" points="832.69 84.46 792.95 62 832.69 39.54 832.69 84.46"/><polygon class="cls-58" points="792.95 -27.8 832.69 -5.34 792.95 17.12 792.95 -27.8"/><polygon class="cls-59" points="832.69 39.58 792.95 17.12 832.69 -5.34 832.69 39.58"/><polygon class="cls-60" points="872.43 106.92 832.69 129.38 872.43 151.84 872.43 106.92"/><polygon class="cls-61" points="872.43 62 832.69 84.46 872.43 106.92 872.43 62"/><polygon class="cls-62" points="832.69 129.38 872.43 106.92 832.69 84.46 832.69 129.38"/><polygon class="cls-63" points="872.43 17.08 832.69 39.54 872.43 62 872.43 17.08"/><polygon class="cls-64" points="832.69 84.46 872.43 62 832.69 39.54 832.69 84.46"/><polygon class="cls-65" points="872.43 -27.8 832.69 -5.34 872.43 17.12 872.43 -27.8"/><polygon class="cls-66" points="832.69 39.58 872.43 17.12 832.69 -5.34 832.69 39.58"/><polygon class="cls-67" points="872.41 106.92 912.15 129.38 872.41 151.84 872.41 106.92"/><polygon class="cls-68" points="872.41 62 912.15 84.46 872.41 106.92 872.41 62"/><polygon class="cls-69" points="912.15 129.38 872.41 106.92 912.15 84.46 912.15 129.38"/><polygon class="cls-70" points="872.41 17.08 912.15 39.54 872.41 62 872.41 17.08"/><polygon class="cls-71" points="912.15 84.46 872.41 62 912.15 39.54 912.15 84.46"/><polygon class="cls-72" points="872.41 -27.8 912.15 -5.34 872.41 17.12 872.41 -27.8"/><polygon class="cls-73" points="912.15 39.58 872.41 17.12 912.15 -5.34 912.15 39.58"/><polygon class="cls-74" points="951.89 106.92 912.15 129.38 951.89 151.84 951.89 106.92"/><polygon class="cls-75" points="951.89 62 912.15 84.46 951.89 106.92 951.89 62"/><polygon class="cls-76" points="912.15 129.38 951.89 106.92 912.15 84.46 912.15 129.38"/><polygon class="cls-77" points="951.89 17.08 912.15 39.54 951.89 62 951.89 17.08"/><polygon class="cls-78" points="912.15 84.46 951.89 62 912.15 39.54 912.15 84.46"/><polygon class="cls-79" points="951.89 -27.8 912.15 -5.34 951.89 17.12 951.89 -27.8"/><polygon class="cls-80" points="912.15 39.58 951.89 17.12 912.15 -5.34 912.15 39.58"/><polygon class="cls-81" points="951.86 106.92 991.61 129.38 951.86 151.84 951.86 106.92"/><polygon class="cls-82" points="951.86 62 991.61 84.46 951.86 106.92 951.86 62"/><polygon class="cls-83" points="991.61 129.38 951.86 106.92 991.61 84.46 991.61 129.38"/><polygon class="cls-84" points="951.86 17.08 991.61 39.54 951.86 62 951.86 17.08"/><polygon class="cls-85" points="991.61 84.46 951.86 62 991.61 39.54 991.61 84.46"/><polygon class="cls-86" points="951.86 -27.8 991.61 -5.34 951.86 17.12 951.86 -27.8"/><polygon class="cls-87" points="991.61 39.58 951.86 17.12 991.61 -5.34 991.61 39.58"/><polygon class="cls-88" points="1031.35 106.92 991.61 129.38 1031.35 151.84 1031.35 106.92"/><polygon class="cls-89" points="1031.35 62 991.61 84.46 1031.35 106.92 1031.35 62"/><polygon class="cls-90" points="991.61 129.38 1031.35 106.92 991.61 84.46 991.61 129.38"/><polygon class="cls-91" points="1031.35 17.08 991.61 39.54 1031.35 62 1031.35 17.08"/><polygon class="cls-92" points="991.61 84.46 1031.35 62 991.61 39.54 991.61 84.46"/><polygon class="cls-93" points="1031.35 -27.8 991.61 -5.34 1031.35 17.12 1031.35 -27.8"/><polygon class="cls-94" points="991.61 39.58 1031.35 17.12 991.61 -5.34 991.61 39.58"/></g><rect class="cls-95" x="-0.06" y="-3.28" width="1030.66" height="118.32"/></svg>