<svg id="Layer_1" data-name="Layer 1" xmlns="http://www.w3.org/2000/svg" xmlns:xlink="http://www.w3.org/1999/xlink" viewBox="0 0 53 53"><defs><style>.cls-1{fill:none;}.cls-2{isolation:isolate;}.cls-3{fill:#fff;}.cls-4{clip-path:url(#clip-path);}.cls-5{fill:#b6b3e5;}.cls-6{fill:#8980c1;}</style><clipPath id="clip-path"><rect class="cls-1" x="10.63" y="-0.1" width="41.72" height="53.23"/></clipPath></defs><title>g6</title><g class="cls-2"><path class="cls-3" d="M26.18,10.14a14,14,0,0,0-2.12-.91,8.19,8.19,0,0,0-2.66-.39,5.26,5.26,0,0,0-1.86.3,3.81,3.81,0,0,0-1.33.83,5.59,5.59,0,0,0-1.16,1.79,9.36,9.36,0,0,0-.59,2.33,5.74,5.74,0,0,1,1.72-1.15,6.35,6.35,0,0,1,2.62-.48,8,8,0,0,1,2.53.4,5.68,5.68,0,0,1,2.15,1.28A6.38,6.38,0,0,1,27,16.4a9,9,0,0,1,.56,3.36,8.46,8.46,0,0,1-2.12,6.08q-2.13,2.22-6.24,2.22a8.27,8.27,0,0,1-4.09-.93,7.63,7.63,0,0,1-2.67-2.47A10.79,10.79,0,0,1,11,21.12,18.49,18.49,0,0,1,10.51,17a18.73,18.73,0,0,1,.2-2.61,15.65,15.65,0,0,1,.67-2.72,13.83,13.83,0,0,1,1.21-2.59,8.73,8.73,0,0,1,1.84-2.17A8.62,8.62,0,0,1,17,5.43a9.15,9.15,0,0,1,3.35-.57,15.94,15.94,0,0,1,3.43.32,14.16,14.16,0,0,1,2.41.74ZM19.24,24a2.43,2.43,0,0,0,2-1A4.26,4.26,0,0,0,22,20.29a4.94,4.94,0,0,0-.66-2.65,2.39,2.39,0,0,0-2.19-1.06,2.45,2.45,0,0,0-2.13,1,4.75,4.75,0,0,0-.73,2.74A4.37,4.37,0,0,0,17,22.92,2.5,2.5,0,0,0,19.24,24Z"/></g><g class="cls-4"><polygon class="cls-5" points="33.67 42.53 42.39 35.52 42.39 35.52 39.93 19.55 18.61 36.69 33.67 42.53 33.67 42.53"/><polygon class="cls-6" points="39.93 19.55 42.39 35.52 52.82 39.57 54.53 50.63 69.6 56.48 65.42 29.45 39.93 19.55"/><polygon class="cls-6" points="35.38 53.59 33.67 42.53 18.61 36.69 22.78 63.71 48.28 73.61 45.81 57.64 35.38 53.59"/><polygon class="cls-5" points="54.53 50.63 45.81 57.64 45.81 57.64 48.28 73.61 69.6 56.48 54.53 50.63 54.53 50.63"/></g></svg>