<?xml version="1.0" encoding="utf-8"?>
<!-- Generator: Adobe Illustrator 24.1.3, SVG Export Plug-In . SVG Version: 6.00 Build 0)  -->
<svg version="1.1" id="Layer_1" xmlns="http://www.w3.org/2000/svg" xmlns:xlink="http://www.w3.org/1999/xlink" x="0px" y="0px"
	 viewBox="0 0 70 44.2" style="enable-background:new 0 0 70 44.2;" xml:space="preserve">
<style type="text/css">
	.st0{fill:#C3DBD8;}
	.st1{fill:#8AC1BC;}
	.st2{fill:#FFFFFF;}
</style>
<g>
	<path class="st0" d="M25.6,22.5c0.2,9.9,8.4,17.7,18.3,17.4c9.5-0.2,17.2-7.9,17.4-17.4H25.6z"/>
	<path class="st1" d="M43.7,4.2v35.7c9.9-0.2,17.7-8.4,17.4-18.3C60.9,12.1,53.2,4.5,43.7,4.2z"/>
</g>
<g>
	<path class="st2" d="M15.8,12H7.1V17c-0.5,0.2-1,0.4-1.6,0.5c-1.3,0.3-2.7,0.3-4,0C1,17.4,0.5,17.2,0,17V5.4h24V11L11.2,38.8H2.6
		L15.8,12z"/>
</g>
</svg>
