<svg id="Layer_1" data-name="Layer 1" xmlns="http://www.w3.org/2000/svg" viewBox="0 0 53 53"><defs><style>.cls-1{isolation:isolate;}.cls-2{fill:#fff;}.cls-3{fill:#c3dbd8;}.cls-4{fill:#8ac1bc;}</style></defs><title>g8</title><g class="cls-1"><path class="cls-2" d="M12,17.37a5.78,5.78,0,0,1-1.89-1.71,4.73,4.73,0,0,1-.73-2.77,6,6,0,0,1,.44-2.27,5.36,5.36,0,0,1,1.41-2,7.36,7.36,0,0,1,2.48-1.38,11.5,11.5,0,0,1,3.66-.51A11.74,11.74,0,0,1,21,7.27a7.22,7.22,0,0,1,2.49,1.38,5.36,5.36,0,0,1,1.41,2,6,6,0,0,1,.45,2.27,4.53,4.53,0,0,1-.78,2.77,7,7,0,0,1-1.85,1.71,6.27,6.27,0,0,1,1.7,1.16,6,6,0,0,1,1,1.36A5.57,5.57,0,0,1,26,21.32a6.81,6.81,0,0,1,.15,1.36,7.77,7.77,0,0,1-.51,2.8A6.31,6.31,0,0,1,24,27.8a7.52,7.52,0,0,1-2.74,1.58,12.09,12.09,0,0,1-4,.58,12,12,0,0,1-3.95-.58,7.6,7.6,0,0,1-2.72-1.58,6.29,6.29,0,0,1-1.57-2.32,7.57,7.57,0,0,1-.52-2.8,6.81,6.81,0,0,1,.15-1.36,5.25,5.25,0,0,1,.52-1.43,5.43,5.43,0,0,1,1-1.36A6.06,6.06,0,0,1,12,17.37Zm5.37,8.51a4.26,4.26,0,0,0,1.18-.17,2.53,2.53,0,0,0,1-.54,2.92,2.92,0,0,0,.7-1,3.4,3.4,0,0,0,.27-1.44,3,3,0,0,0-.9-2.29,3.21,3.21,0,0,0-2.26-.83,3.17,3.17,0,0,0-2.22.83,3,3,0,0,0-.9,2.29,3.4,3.4,0,0,0,.27,1.44,2.92,2.92,0,0,0,.7,1,2.58,2.58,0,0,0,1,.54A4.17,4.17,0,0,0,17.33,25.88ZM14.81,13.23a2.74,2.74,0,0,0,.15.9,2.65,2.65,0,0,0,.45.8,2.21,2.21,0,0,0,.78.58,2.83,2.83,0,0,0,1.14.21,2.29,2.29,0,0,0,2-.79,2.78,2.78,0,0,0,.6-1.7,3.57,3.57,0,0,0-.1-.81,2.23,2.23,0,0,0-.38-.83,2.42,2.42,0,0,0-.78-.65,2.83,2.83,0,0,0-1.3-.26,2.8,2.8,0,0,0-1.26.26,2.42,2.42,0,0,0-.78.65,2.23,2.23,0,0,0-.38.83A4.25,4.25,0,0,0,14.81,13.23Z"/></g><path class="cls-3" d="M11.24,33.71a17.85,17.85,0,1,0,35.69.84q0-.42,0-.84Z"/><path class="cls-4" d="M29.34,15.87V51.55a17.84,17.84,0,0,0,0-35.68Z"/></svg>