<?xml version="1.0" encoding="utf-8"?>
<!-- Generator: Adobe Illustrator 24.1.3, SVG Export Plug-In . SVG Version: 6.00 Build 0)  -->
<svg version="1.1" id="Layer_1" xmlns="http://www.w3.org/2000/svg" xmlns:xlink="http://www.w3.org/1999/xlink" x="0px" y="0px"
	 viewBox="0 0 70 44.2" style="enable-background:new 0 0 70 44.2;" xml:space="preserve">
<style type="text/css">
	.st0{fill:#E0F2C0;}
	.st1{fill:#84BA6A;}
	.st2{fill:#FFFFFF;}
</style>
<g>
	<g>
		<polygon class="st0" points="33.9,26.9 47.7,3.1 61.4,26.9 		"/>
		<polygon class="st1" points="33.9,41.1 47.7,17.2 61.4,41.1 		"/>
	</g>
	<g>
		<path class="st2" d="M24.3,12.3c-1.1-0.6-2.2-1-3.3-1.4c-1.3-0.4-2.7-0.6-4.1-0.6c-1,0-2,0.1-2.9,0.5C13.2,11,12.5,11.4,12,12
			c-0.8,0.8-1.4,1.7-1.8,2.8c-0.5,1.2-0.8,2.4-0.9,3.6c0.8-0.8,1.7-1.4,2.7-1.8c1.3-0.5,2.7-0.8,4.1-0.7c1.3,0,2.7,0.2,3.9,0.6
			c1.2,0.4,2.4,1.1,3.3,2c1,1,1.8,2.2,2.4,3.5c0.6,1.7,0.9,3.4,0.9,5.2c0.2,3.5-1,6.8-3.3,9.4c-2.2,2.3-5.4,3.4-9.7,3.4
			c-2.2,0.1-4.4-0.4-6.3-1.4C5.5,37.7,4,36.4,3,34.8c-1.1-1.7-1.8-3.5-2.2-5.5C0.3,27.2,0,25.1,0,22.9c0-1.4,0.1-2.7,0.3-4.1
			c0.2-1.4,0.6-2.8,1-4.2c0.5-1.4,1.1-2.7,1.9-4C4,9.4,5,8.2,6.1,7.3c1.2-1,2.5-1.8,4-2.3c1.7-0.6,3.4-0.9,5.2-0.9
			c1.8,0,3.6,0.1,5.3,0.5c1.3,0.3,2.5,0.7,3.7,1.1L24.3,12.3z M13.6,33.8c1.2,0,2.4-0.6,3.1-1.6c0.9-1.2,1.3-2.7,1.2-4.2
			c0.1-1.4-0.3-2.9-1-4.1c-0.7-1.1-2.1-1.8-3.4-1.6c-1.3-0.1-2.5,0.5-3.3,1.6c-0.8,1.3-1.2,2.8-1.1,4.3c-0.1,1.4,0.3,2.8,1.1,4
			C10.9,33.3,12.2,33.9,13.6,33.8z"/>
	</g>
</g>
</svg>
