<svg id="Layer_1" data-name="Layer 1" xmlns="http://www.w3.org/2000/svg" xmlns:xlink="http://www.w3.org/1999/xlink" viewBox="0 0 1024 107.08"><defs><style>.cls-1{fill:none;}.cls-2{clip-path:url(#clip-path);}.cls-3{fill:url(#linear-gradient);}.cls-4{fill:#084e99;}.cls-5{fill:#034d92;}.cls-6{fill:#08529b;}.cls-7{fill:#0a5ca3;}.cls-8{fill:#074b94;}.cls-9{fill:#1571b3;}.cls-10{fill:#0a6db2;}.cls-11{fill:#073d89;}.cls-12{fill:#0f71b2;}.cls-13{fill:#064c96;}.cls-14{fill:#1661a4;}.cls-15{fill:#07529b;}.cls-16{fill:#106bb0;}.cls-17{fill:#0d85c0;}.cls-18{fill:#1576b3;}.cls-19{fill:#08559d;}.cls-20{fill:#0d78b8;}.cls-21{fill:#0863a9;}.cls-22{fill:#1865a8;}.cls-23{fill:#0872b5;}.cls-24{fill:#1573b1;}.cls-25{fill:#106cad;}.cls-26{fill:#1278b5;}.cls-27{fill:#0f7ab9;}.cls-28{fill:#0a79ba;}.cls-29{fill:#1568aa;}.cls-30{fill:#0760a8;}.cls-31{fill:#1490cb;}.cls-32{fill:#1362a5;}.cls-33{fill:#1c6bac;}.cls-34{fill:#0761a7;}.cls-35{fill:#0c61a6;}.cls-36{fill:#065ca3;}.cls-37{fill:#0d7fb8;}.cls-38{fill:#1471b3;}.cls-39{fill:#0759a1;}.cls-40{fill:#0c6ab1;}.cls-41{fill:#0856a0;}.cls-42{fill:#104d95;}.cls-43{fill:#1363a6;}.cls-44{fill:#1a8ac7;}.cls-45{fill:#0e5ca4;}.cls-46{fill:#1264a6;}.cls-47{fill:#0960a5;}.cls-48{fill:#0b59a5;}.cls-49{fill:#0a84c1;}.cls-50{fill:#0b72b5;}.cls-51{fill:#086fb2;}.cls-52{fill:#0e7bbc;}.cls-53{fill:#0c5398;}.cls-54{fill:#0d72b4;}.cls-55{fill:#08549f;}.cls-56{fill:#1470af;}.cls-57{fill:#176eaf;}.cls-58{fill:#0d82be;}.cls-59{fill:#155ca2;}.cls-60{fill:#0957a1;}.cls-61{fill:#024d95;}.cls-62{fill:#055199;}.cls-63{fill:#1b72b5;}.cls-64{fill:#0869ae;}.cls-65{fill:#0a7ebd;}.cls-66{fill:#0c75b7;}.cls-67{fill:#1769ad;}.cls-68{fill:#0b61a9;}.cls-69{fill:#1c80c4;}.cls-70{fill:#167bb7;}.cls-71{fill:#175ca3;}.cls-72{fill:#0b7abb;}.cls-73{fill:#0d7dbe;}.cls-74{fill:#114386;}.cls-75{fill:#1569ad;}.cls-76{fill:#115da1;}.cls-77{fill:#0f62a7;}.cls-78{fill:#156dad;}.cls-79{fill:#1076b8;}.cls-80{fill:#0d61ab;}.cls-81{fill:#0a56a1;}.cls-82{fill:#044892;}.cls-83{fill:#0d599e;}.cls-84{fill:#1088c4;}.cls-85{fill:#0f5da5;}.cls-86{fill:#0b73b6;}.cls-87{fill:#0d86c1;}.cls-88{fill:#095499;}.cls-89{fill:#146eae;}.cls-90{fill:#0c5fa7;}.cls-91{fill:#0b65ab;}.cls-92{fill:#0e75b9;}.cls-93{fill:#147cbc;}.cls-94{fill:#0e7ebc;}.cls-95{fill:#1274b5;opacity:0.5;}.cls-95,.cls-96{isolation:isolate;}.cls-96{opacity:0.4;}</style><clipPath id="clip-path"><rect class="cls-1" x="-4.79" y="-12.09" width="1033.45" height="120.34"/></clipPath><linearGradient id="linear-gradient" x1="255.05" y1="-192.51" x2="255.05" y2="322.38" gradientTransform="matrix(1, 0, 0, -1, 0, 110)" gradientUnits="userSpaceOnUse"><stop offset="0" stop-color="#3982db"/><stop offset="0.44" stop-color="#51bbed"/><stop offset="0.81" stop-color="#62e4fa"/><stop offset="1" stop-color="#69f3ff"/></linearGradient></defs><title>bg-kh-k5</title><g class="cls-2"><rect class="cls-3" x="-2.39" y="-212.38" width="514.89" height="514.89"/><polygon class="cls-4" points="37.23 101 -2.39 123.39 37.23 145.78 37.23 101"/><polygon class="cls-5" points="37.23 56.22 -2.39 78.61 37.23 101 37.23 56.22"/><polygon class="cls-6" points="-2.39 123.39 37.23 101 -2.39 78.61 -2.39 123.39"/><polygon class="cls-7" points="37.23 11.44 -2.39 33.83 37.23 56.22 37.23 11.44"/><polygon class="cls-8" points="-2.39 78.61 37.23 56.22 -2.39 33.83 -2.39 78.61"/><polygon class="cls-9" points="37.23 -33.3 -2.39 -10.91 37.23 11.48 37.23 -33.3"/><polygon class="cls-10" points="-2.39 33.87 37.23 11.48 -2.39 -10.91 -2.39 33.87"/><polygon class="cls-11" points="37.21 101 76.83 123.39 37.21 145.78 37.21 101"/><polygon class="cls-12" points="37.21 56.22 76.83 78.61 37.21 101 37.21 56.22"/><polygon class="cls-13" points="76.83 123.39 37.21 101 76.83 78.61 76.83 123.39"/><polygon class="cls-14" points="37.21 11.44 76.83 33.83 37.21 56.22 37.21 11.44"/><polygon class="cls-15" points="76.83 78.61 37.21 56.22 76.83 33.83 76.83 78.61"/><polygon class="cls-16" points="37.21 -33.3 76.83 -10.91 37.21 11.48 37.21 -33.3"/><polygon class="cls-17" points="76.83 33.87 37.21 11.48 76.83 -10.91 76.83 33.87"/><polygon class="cls-18" points="116.44 101 76.83 123.39 116.44 145.78 116.44 101"/><polygon class="cls-19" points="116.44 56.22 76.83 78.61 116.44 101 116.44 56.22"/><polygon class="cls-20" points="76.83 123.39 116.44 101 76.83 78.61 76.83 123.39"/><polygon class="cls-21" points="116.44 11.44 76.83 33.83 116.44 56.22 116.44 11.44"/><polygon class="cls-22" points="76.83 78.61 116.44 56.22 76.83 33.83 76.83 78.61"/><polygon class="cls-23" points="116.44 -33.3 76.83 -10.91 116.44 11.48 116.44 -33.3"/><polygon class="cls-24" points="76.83 33.87 116.44 11.48 76.83 -10.91 76.83 33.87"/><polygon class="cls-25" points="116.42 101 156.04 123.39 116.42 145.78 116.42 101"/><polygon class="cls-26" points="116.42 56.22 156.04 78.61 116.42 101 116.42 56.22"/><polygon class="cls-27" points="156.04 123.39 116.42 101 156.04 78.61 156.04 123.39"/><polygon class="cls-28" points="116.42 11.44 156.04 33.83 116.42 56.22 116.42 11.44"/><polygon class="cls-29" points="156.04 78.61 116.42 56.22 156.04 33.83 156.04 78.61"/><polygon class="cls-30" points="116.42 -33.3 156.04 -10.91 116.42 11.48 116.42 -33.3"/><polygon class="cls-31" points="156.04 33.87 116.42 11.48 156.04 -10.91 156.04 33.87"/><polygon class="cls-32" points="195.66 101 156.04 123.39 195.66 145.78 195.66 101"/><polygon class="cls-33" points="195.66 56.22 156.04 78.61 195.66 101 195.66 56.22"/><polygon class="cls-34" points="156.04 123.39 195.66 101 156.04 78.61 156.04 123.39"/><polygon class="cls-35" points="195.66 11.44 156.04 33.83 195.66 56.22 195.66 11.44"/><polygon class="cls-36" points="156.04 78.61 195.66 56.22 156.04 33.83 156.04 78.61"/><polygon class="cls-37" points="195.66 -33.3 156.04 -10.91 195.66 11.48 195.66 -33.3"/><polygon class="cls-38" points="156.04 33.87 195.66 11.48 156.04 -10.91 156.04 33.87"/><polygon class="cls-39" points="195.63 101 235.25 123.39 195.63 145.78 195.63 101"/><polygon class="cls-40" points="195.63 56.22 235.25 78.61 195.63 101 195.63 56.22"/><polygon class="cls-41" points="235.25 123.39 195.63 101 235.25 78.61 235.25 123.39"/><polygon class="cls-42" points="195.63 11.44 235.25 33.83 195.63 56.22 195.63 11.44"/><polygon class="cls-43" points="235.25 78.61 195.63 56.22 235.25 33.83 235.25 78.61"/><polygon class="cls-44" points="195.63 -33.3 235.25 -10.91 195.63 11.48 195.63 -33.3"/><polygon class="cls-45" points="235.25 33.87 195.63 11.48 235.25 -10.91 235.25 33.87"/><polygon class="cls-46" points="274.87 101 235.25 123.39 274.87 145.78 274.87 101"/><polygon class="cls-47" points="274.87 56.22 235.25 78.61 274.87 101 274.87 56.22"/><polygon class="cls-48" points="235.25 123.39 274.87 101 235.25 78.61 235.25 123.39"/><polygon class="cls-49" points="274.87 11.44 235.25 33.83 274.87 56.22 274.87 11.44"/><polygon class="cls-50" points="235.25 78.61 274.87 56.22 235.25 33.83 235.25 78.61"/><polygon class="cls-51" points="274.87 -33.3 235.25 -10.91 274.87 11.48 274.87 -33.3"/><polygon class="cls-52" points="235.25 33.87 274.87 11.48 235.25 -10.91 235.25 33.87"/><polygon class="cls-53" points="274.84 101 314.46 123.39 274.84 145.78 274.84 101"/><polygon class="cls-54" points="274.84 56.22 314.46 78.61 274.84 101 274.84 56.22"/><polygon class="cls-55" points="314.46 123.39 274.84 101 314.46 78.61 314.46 123.39"/><polygon class="cls-56" points="274.84 11.44 314.46 33.83 274.84 56.22 274.84 11.44"/><polygon class="cls-57" points="314.46 78.61 274.84 56.22 314.46 33.83 314.46 78.61"/><polygon class="cls-58" points="274.84 -33.3 314.46 -10.91 274.84 11.48 274.84 -33.3"/><polygon class="cls-59" points="314.46 33.87 274.84 11.48 314.46 -10.91 314.46 33.87"/><polygon class="cls-60" points="354.08 101 314.46 123.39 354.08 145.78 354.08 101"/><polygon class="cls-61" points="354.08 56.22 314.46 78.61 354.08 101 354.08 56.22"/><polygon class="cls-62" points="314.46 123.39 354.08 101 314.46 78.61 314.46 123.39"/><polygon class="cls-63" points="354.08 11.44 314.46 33.83 354.08 56.22 354.08 11.44"/><polygon class="cls-64" points="314.46 78.61 354.08 56.22 314.46 33.83 314.46 78.61"/><polygon class="cls-65" points="354.08 -33.3 314.46 -10.91 354.08 11.48 354.08 -33.3"/><polygon class="cls-66" points="314.46 33.87 354.08 11.48 314.46 -10.91 314.46 33.87"/><polygon class="cls-67" points="354.05 101 393.67 123.39 354.05 145.78 354.05 101"/><polygon class="cls-68" points="354.05 56.22 393.67 78.61 354.05 101 354.05 56.22"/><polygon class="cls-69" points="393.67 123.39 354.05 101 393.67 78.61 393.67 123.39"/><polygon class="cls-70" points="354.05 11.44 393.67 33.83 354.05 56.22 354.05 11.44"/><polygon class="cls-71" points="393.67 78.61 354.05 56.22 393.67 33.83 393.67 78.61"/><polygon class="cls-72" points="354.05 -33.3 393.67 -10.91 354.05 11.48 354.05 -33.3"/><polygon class="cls-73" points="393.67 33.87 354.05 11.48 393.67 -10.91 393.67 33.87"/><polygon class="cls-74" points="433.29 101 393.67 123.39 433.29 145.78 433.29 101"/><polygon class="cls-75" points="433.29 56.22 393.67 78.61 433.29 101 433.29 56.22"/><polygon class="cls-76" points="393.67 123.39 433.29 101 393.67 78.61 393.67 123.39"/><polygon class="cls-77" points="433.29 11.44 393.67 33.83 433.29 56.22 433.29 11.44"/><polygon class="cls-78" points="393.67 78.61 433.29 56.22 393.67 33.83 393.67 78.61"/><polygon class="cls-79" points="433.29 -33.3 393.67 -10.91 433.29 11.48 433.29 -33.3"/><polygon class="cls-80" points="393.67 33.87 433.29 11.48 393.67 -10.91 393.67 33.87"/><polygon class="cls-81" points="433.26 101 472.88 123.39 433.26 145.78 433.26 101"/><polygon class="cls-82" points="433.26 56.22 472.88 78.61 433.26 101 433.26 56.22"/><polygon class="cls-83" points="472.88 123.39 433.26 101 472.88 78.61 472.88 123.39"/><polygon class="cls-84" points="433.26 11.44 472.88 33.83 433.26 56.22 433.26 11.44"/><polygon class="cls-85" points="472.88 78.61 433.26 56.22 472.88 33.83 472.88 78.61"/><polygon class="cls-86" points="433.26 -33.3 472.88 -10.91 433.26 11.48 433.26 -33.3"/><polygon class="cls-87" points="472.88 33.87 433.26 11.48 472.88 -10.91 472.88 33.87"/><polygon class="cls-88" points="512.5 101 472.88 123.39 512.5 145.78 512.5 101"/><polygon class="cls-89" points="512.5 56.22 472.88 78.61 512.5 101 512.5 56.22"/><polygon class="cls-90" points="472.88 123.39 512.5 101 472.88 78.61 472.88 123.39"/><polygon class="cls-91" points="512.5 11.44 472.88 33.83 512.5 56.22 512.5 11.44"/><polygon class="cls-92" points="472.88 78.61 512.5 56.22 472.88 33.83 472.88 78.61"/><polygon class="cls-93" points="512.5 -33.3 472.88 -10.91 512.5 11.48 512.5 -33.3"/><polygon class="cls-94" points="472.88 33.87 512.5 11.48 472.88 -10.91 472.88 33.87"/><polygon class="cls-4" points="551.58 101 511.96 123.39 551.58 145.78 551.58 101"/><polygon class="cls-5" points="551.58 56.22 511.96 78.61 551.58 101 551.58 56.22"/><polygon class="cls-6" points="511.96 123.39 551.58 101 511.96 78.61 511.96 123.39"/><polygon class="cls-7" points="551.58 11.44 511.96 33.83 551.58 56.22 551.58 11.44"/><polygon class="cls-8" points="511.96 78.61 551.58 56.22 511.96 33.83 511.96 78.61"/><polygon class="cls-9" points="551.58 -33.3 511.96 -10.91 551.58 11.48 551.58 -33.3"/><polygon class="cls-10" points="511.96 33.87 551.58 11.48 511.96 -10.91 511.96 33.87"/><polygon class="cls-11" points="551.55 101 591.17 123.39 551.55 145.78 551.55 101"/><polygon class="cls-12" points="551.55 56.22 591.17 78.61 551.55 101 551.55 56.22"/><polygon class="cls-13" points="591.17 123.39 551.55 101 591.17 78.61 591.17 123.39"/><polygon class="cls-14" points="551.55 11.44 591.17 33.83 551.55 56.22 551.55 11.44"/><polygon class="cls-15" points="591.17 78.61 551.55 56.22 591.17 33.83 591.17 78.61"/><polygon class="cls-16" points="551.55 -33.3 591.17 -10.91 551.55 11.48 551.55 -33.3"/><polygon class="cls-17" points="591.17 33.87 551.55 11.48 591.17 -10.91 591.17 33.87"/><polygon class="cls-18" points="630.79 101 591.17 123.39 630.79 145.78 630.79 101"/><polygon class="cls-19" points="630.79 56.22 591.17 78.61 630.79 101 630.79 56.22"/><polygon class="cls-20" points="591.17 123.39 630.79 101 591.17 78.61 591.17 123.39"/><polygon class="cls-21" points="630.79 11.44 591.17 33.83 630.79 56.22 630.79 11.44"/><polygon class="cls-22" points="591.17 78.61 630.79 56.22 591.17 33.83 591.17 78.61"/><polygon class="cls-23" points="630.79 -33.3 591.17 -10.91 630.79 11.48 630.79 -33.3"/><polygon class="cls-24" points="591.17 33.87 630.79 11.48 591.17 -10.91 591.17 33.87"/><polygon class="cls-25" points="630.77 101 670.39 123.39 630.77 145.78 630.77 101"/><polygon class="cls-26" points="630.77 56.22 670.39 78.61 630.77 101 630.77 56.22"/><polygon class="cls-27" points="670.39 123.39 630.77 101 670.39 78.61 670.39 123.39"/><polygon class="cls-28" points="630.77 11.44 670.39 33.83 630.77 56.22 630.77 11.44"/><polygon class="cls-29" points="670.39 78.61 630.77 56.22 670.39 33.83 670.39 78.61"/><polygon class="cls-30" points="630.77 -33.3 670.39 -10.91 630.77 11.48 630.77 -33.3"/><polygon class="cls-31" points="670.39 33.87 630.77 11.48 670.39 -10.91 670.39 33.87"/><polygon class="cls-32" points="710 101 670.39 123.39 710 145.78 710 101"/><polygon class="cls-33" points="710 56.22 670.39 78.61 710 101 710 56.22"/><polygon class="cls-34" points="670.39 123.39 710 101 670.39 78.61 670.39 123.39"/><polygon class="cls-35" points="710 11.44 670.39 33.83 710 56.22 710 11.44"/><polygon class="cls-36" points="670.39 78.61 710 56.22 670.39 33.83 670.39 78.61"/><polygon class="cls-37" points="710 -33.3 670.39 -10.91 710 11.48 710 -33.3"/><polygon class="cls-38" points="670.39 33.87 710 11.48 670.39 -10.91 670.39 33.87"/><polygon class="cls-39" points="709.98 101 749.6 123.39 709.98 145.78 709.98 101"/><polygon class="cls-40" points="709.98 56.22 749.6 78.61 709.98 101 709.98 56.22"/><polygon class="cls-41" points="749.6 123.39 709.98 101 749.6 78.61 749.6 123.39"/><polygon class="cls-42" points="709.98 11.44 749.6 33.83 709.98 56.22 709.98 11.44"/><polygon class="cls-43" points="749.6 78.61 709.98 56.22 749.6 33.83 749.6 78.61"/><polygon class="cls-44" points="709.98 -33.3 749.6 -10.91 709.98 11.48 709.98 -33.3"/><polygon class="cls-45" points="749.6 33.87 709.98 11.48 749.6 -10.91 749.6 33.87"/><polygon class="cls-46" points="789.22 101 749.6 123.39 789.22 145.78 789.22 101"/><polygon class="cls-47" points="789.22 56.22 749.6 78.61 789.22 101 789.22 56.22"/><polygon class="cls-48" points="749.6 123.39 789.22 101 749.6 78.61 749.6 123.39"/><polygon class="cls-49" points="789.22 11.44 749.6 33.83 789.22 56.22 789.22 11.44"/><polygon class="cls-50" points="749.6 78.61 789.22 56.22 749.6 33.83 749.6 78.61"/><polygon class="cls-51" points="789.22 -33.3 749.6 -10.91 789.22 11.48 789.22 -33.3"/><polygon class="cls-52" points="749.6 33.87 789.22 11.48 749.6 -10.91 749.6 33.87"/><polygon class="cls-53" points="789.19 101 828.81 123.39 789.19 145.78 789.19 101"/><polygon class="cls-54" points="789.19 56.22 828.81 78.61 789.19 101 789.19 56.22"/><polygon class="cls-55" points="828.81 123.39 789.19 101 828.81 78.61 828.81 123.39"/><polygon class="cls-56" points="789.19 11.44 828.81 33.83 789.19 56.22 789.19 11.44"/><polygon class="cls-57" points="828.81 78.61 789.19 56.22 828.81 33.83 828.81 78.61"/><polygon class="cls-58" points="789.19 -33.3 828.81 -10.91 789.19 11.48 789.19 -33.3"/><polygon class="cls-59" points="828.81 33.87 789.19 11.48 828.81 -10.91 828.81 33.87"/><polygon class="cls-60" points="868.43 101 828.81 123.39 868.43 145.78 868.43 101"/><polygon class="cls-61" points="868.43 56.22 828.81 78.61 868.43 101 868.43 56.22"/><polygon class="cls-62" points="828.81 123.39 868.43 101 828.81 78.61 828.81 123.39"/><polygon class="cls-63" points="868.43 11.44 828.81 33.83 868.43 56.22 868.43 11.44"/><polygon class="cls-64" points="828.81 78.61 868.43 56.22 828.81 33.83 828.81 78.61"/><polygon class="cls-65" points="868.43 -33.3 828.81 -10.91 868.43 11.48 868.43 -33.3"/><polygon class="cls-66" points="828.81 33.87 868.43 11.48 828.81 -10.91 828.81 33.87"/><polygon class="cls-67" points="868.4 101 908.02 123.39 868.4 145.78 868.4 101"/><polygon class="cls-68" points="868.4 56.22 908.02 78.61 868.4 101 868.4 56.22"/><polygon class="cls-69" points="908.02 123.39 868.4 101 908.02 78.61 908.02 123.39"/><polygon class="cls-70" points="868.4 11.44 908.02 33.83 868.4 56.22 868.4 11.44"/><polygon class="cls-71" points="908.02 78.61 868.4 56.22 908.02 33.83 908.02 78.61"/><polygon class="cls-72" points="868.4 -33.3 908.02 -10.91 868.4 11.48 868.4 -33.3"/><polygon class="cls-73" points="908.02 33.87 868.4 11.48 908.02 -10.91 908.02 33.87"/><polygon class="cls-74" points="947.64 101 908.02 123.39 947.64 145.78 947.64 101"/><polygon class="cls-75" points="947.64 56.22 908.02 78.61 947.64 101 947.64 56.22"/><polygon class="cls-76" points="908.02 123.39 947.64 101 908.02 78.61 908.02 123.39"/><polygon class="cls-77" points="947.64 11.44 908.02 33.83 947.64 56.22 947.64 11.44"/><polygon class="cls-78" points="908.02 78.61 947.64 56.22 908.02 33.83 908.02 78.61"/><polygon class="cls-79" points="947.64 -33.3 908.02 -10.91 947.64 11.48 947.64 -33.3"/><polygon class="cls-80" points="908.02 33.87 947.64 11.48 908.02 -10.91 908.02 33.87"/><polygon class="cls-81" points="947.61 101 987.23 123.39 947.61 145.78 947.61 101"/><polygon class="cls-82" points="947.61 56.22 987.23 78.61 947.61 101 947.61 56.22"/><polygon class="cls-83" points="987.23 123.39 947.61 101 987.23 78.61 987.23 123.39"/><polygon class="cls-84" points="947.61 11.44 987.23 33.83 947.61 56.22 947.61 11.44"/><polygon class="cls-85" points="987.23 78.61 947.61 56.22 987.23 33.83 987.23 78.61"/><polygon class="cls-86" points="947.61 -33.3 987.23 -10.91 947.61 11.48 947.61 -33.3"/><polygon class="cls-87" points="987.23 33.87 947.61 11.48 987.23 -10.91 987.23 33.87"/><polygon class="cls-88" points="1026.85 101 987.23 123.39 1026.85 145.78 1026.85 101"/><polygon class="cls-89" points="1026.85 56.22 987.23 78.61 1026.85 101 1026.85 56.22"/><polygon class="cls-90" points="987.23 123.39 1026.85 101 987.23 78.61 987.23 123.39"/><polygon class="cls-91" points="1026.85 11.44 987.23 33.83 1026.85 56.22 1026.85 11.44"/><polygon class="cls-92" points="987.23 78.61 1026.85 56.22 987.23 33.83 987.23 78.61"/><polygon class="cls-93" points="1026.85 -33.3 987.23 -10.91 1026.85 11.48 1026.85 -33.3"/><polygon class="cls-94" points="987.23 33.87 1026.85 11.48 987.23 -10.91 987.23 33.87"/></g><rect class="cls-95" x="-1.39" y="-8.86" width="1027.49" height="117.96"/><rect class="cls-96" x="-1.39" y="-10.91" width="1027.49" height="120.01"/></svg>