<svg id="Layer_1" data-name="Layer 1" xmlns="http://www.w3.org/2000/svg" xmlns:xlink="http://www.w3.org/1999/xlink" viewBox="0 0 1024 110"><defs><style>.cls-1{fill:none;}.cls-2{clip-path:url(#clip-path);}.cls-3{fill:url(#linear-gradient);}.cls-4{fill:#084e99;}.cls-5{fill:#034d92;}.cls-6{fill:#08529b;}.cls-7{fill:#0a5ca3;}.cls-8{fill:#074b94;}.cls-9{fill:#1571b3;}.cls-10{fill:#0a6db2;}.cls-11{fill:#073d89;}.cls-12{fill:#0f71b2;}.cls-13{fill:#064c96;}.cls-14{fill:#1661a4;}.cls-15{fill:#07529b;}.cls-16{fill:#106bb0;}.cls-17{fill:#0d85c0;}.cls-18{fill:#1576b3;}.cls-19{fill:#08559d;}.cls-20{fill:#0d78b8;}.cls-21{fill:#0863a9;}.cls-22{fill:#1865a8;}.cls-23{fill:#0872b5;}.cls-24{fill:#1573b1;}.cls-25{fill:#106cad;}.cls-26{fill:#1278b5;}.cls-27{fill:#0f7ab9;}.cls-28{fill:#0a79ba;}.cls-29{fill:#1568aa;}.cls-30{fill:#0760a8;}.cls-31{fill:#1490cb;}.cls-32{fill:#1362a5;}.cls-33{fill:#1c6bac;}.cls-34{fill:#0761a7;}.cls-35{fill:#0c61a6;}.cls-36{fill:#065ca3;}.cls-37{fill:#0d7fb8;}.cls-38{fill:#1471b3;}.cls-39{fill:#0759a1;}.cls-40{fill:#0c6ab1;}.cls-41{fill:#0856a0;}.cls-42{fill:#104d95;}.cls-43{fill:#1363a6;}.cls-44{fill:#1a8ac7;}.cls-45{fill:#0e5ca4;}.cls-46{fill:#1264a6;}.cls-47{fill:#0960a5;}.cls-48{fill:#0b59a5;}.cls-49{fill:#0a84c1;}.cls-50{fill:#0b72b5;}.cls-51{fill:#086fb2;}.cls-52{fill:#0e7bbc;}.cls-53{fill:#0c5398;}.cls-54{fill:#0d72b4;}.cls-55{fill:#08549f;}.cls-56{fill:#1470af;}.cls-57{fill:#176eaf;}.cls-58{fill:#0d82be;}.cls-59{fill:#155ca2;}.cls-60{fill:#0957a1;}.cls-61{fill:#024d95;}.cls-62{fill:#055199;}.cls-63{fill:#1b72b5;}.cls-64{fill:#0869ae;}.cls-65{fill:#0a7ebd;}.cls-66{fill:#0c75b7;}.cls-67{fill:#1769ad;}.cls-68{fill:#0b61a9;}.cls-69{fill:#1c80c4;}.cls-70{fill:#167bb7;}.cls-71{fill:#175ca3;}.cls-72{fill:#0b7abb;}.cls-73{fill:#0d7dbe;}.cls-74{fill:#114386;}.cls-75{fill:#1569ad;}.cls-76{fill:#115da1;}.cls-77{fill:#0f62a7;}.cls-78{fill:#156dad;}.cls-79{fill:#1076b8;}.cls-80{fill:#0d61ab;}.cls-81{fill:#0a56a1;}.cls-82{fill:#044892;}.cls-83{fill:#0d599e;}.cls-84{fill:#1088c4;}.cls-85{fill:#0f5da5;}.cls-86{fill:#0b73b6;}.cls-87{fill:#0d86c1;}.cls-88{fill:#095499;}.cls-89{fill:#146eae;}.cls-90{fill:#0c5fa7;}.cls-91{fill:#0b65ab;}.cls-92{fill:#0e75b9;}.cls-93{fill:#147cbc;}.cls-94{fill:#0e7ebc;}.cls-95{fill:#0155a2;opacity:0.5;isolation:isolate;}</style><clipPath id="clip-path"><rect class="cls-1" x="-10.79" y="-5.12" width="1049.27" height="122.18"/></clipPath><linearGradient id="linear-gradient" x1="253.04" y1="-202.3" x2="253.04" y2="320.47" gradientTransform="matrix(1, 0, 0, -1, 0, 112)" gradientUnits="userSpaceOnUse"><stop offset="0" stop-color="#3982db"/><stop offset="0.44" stop-color="#51bbed"/><stop offset="0.81" stop-color="#62e4fa"/><stop offset="1" stop-color="#69f3ff"/></linearGradient></defs><title>bg-kh-sixeight</title><g class="cls-2"><rect class="cls-3" x="-8.35" y="-208.47" width="522.77" height="522.77"/><polygon class="cls-4" points="31.88 109.71 -8.35 132.44 31.88 155.18 31.88 109.71"/><polygon class="cls-5" points="31.88 64.24 -8.35 86.97 31.88 109.71 31.88 64.24"/><polygon class="cls-6" points="-8.35 132.44 31.88 109.71 -8.35 86.97 -8.35 132.44"/><polygon class="cls-7" points="31.88 18.77 -8.35 41.51 31.88 64.24 31.88 18.77"/><polygon class="cls-8" points="-8.35 86.97 31.88 64.24 -8.35 41.51 -8.35 86.97"/><polygon class="cls-9" points="31.88 -26.65 -8.35 -3.92 31.88 18.82 31.88 -26.65"/><polygon class="cls-10" points="-8.35 41.55 31.88 18.82 -8.35 -3.92 -8.35 41.55"/><polygon class="cls-11" points="31.85 109.71 72.08 132.44 31.85 155.18 31.85 109.71"/><polygon class="cls-12" points="31.85 64.24 72.08 86.97 31.85 109.71 31.85 64.24"/><polygon class="cls-13" points="72.08 132.44 31.85 109.71 72.08 86.97 72.08 132.44"/><polygon class="cls-14" points="31.85 18.77 72.08 41.51 31.85 64.24 31.85 18.77"/><polygon class="cls-15" points="72.08 86.97 31.85 64.24 72.08 41.51 72.08 86.97"/><polygon class="cls-16" points="31.85 -26.65 72.08 -3.92 31.85 18.82 31.85 -26.65"/><polygon class="cls-17" points="72.08 41.55 31.85 18.82 72.08 -3.92 72.08 41.55"/><polygon class="cls-18" points="112.3 109.71 72.08 132.44 112.3 155.18 112.3 109.71"/><polygon class="cls-19" points="112.3 64.24 72.08 86.97 112.3 109.71 112.3 64.24"/><polygon class="cls-20" points="72.08 132.44 112.3 109.71 72.08 86.97 72.08 132.44"/><polygon class="cls-21" points="112.3 18.77 72.08 41.51 112.3 64.24 112.3 18.77"/><polygon class="cls-22" points="72.08 86.97 112.3 64.24 72.08 41.51 72.08 86.97"/><polygon class="cls-23" points="112.3 -26.65 72.08 -3.92 112.3 18.82 112.3 -26.65"/><polygon class="cls-24" points="72.08 41.55 112.3 18.82 72.08 -3.92 72.08 41.55"/><polygon class="cls-25" points="112.27 109.71 152.5 132.44 112.27 155.18 112.27 109.71"/><polygon class="cls-26" points="112.27 64.24 152.5 86.97 112.27 109.71 112.27 64.24"/><polygon class="cls-27" points="152.5 132.44 112.27 109.71 152.5 86.97 152.5 132.44"/><polygon class="cls-28" points="112.27 18.77 152.5 41.51 112.27 64.24 112.27 18.77"/><polygon class="cls-29" points="152.5 86.97 112.27 64.24 152.5 41.51 152.5 86.97"/><polygon class="cls-30" points="112.27 -26.65 152.5 -3.92 112.27 18.82 112.27 -26.65"/><polygon class="cls-31" points="152.5 41.55 112.27 18.82 152.5 -3.92 152.5 41.55"/><polygon class="cls-32" points="192.73 109.71 152.5 132.44 192.73 155.18 192.73 109.71"/><polygon class="cls-33" points="192.73 64.24 152.5 86.97 192.73 109.71 192.73 64.24"/><polygon class="cls-34" points="152.5 132.44 192.73 109.71 152.5 86.97 152.5 132.44"/><polygon class="cls-35" points="192.73 18.77 152.5 41.51 192.73 64.24 192.73 18.77"/><polygon class="cls-36" points="152.5 86.97 192.73 64.24 152.5 41.51 152.5 86.97"/><polygon class="cls-37" points="192.73 -26.65 152.5 -3.92 192.73 18.82 192.73 -26.65"/><polygon class="cls-38" points="152.5 41.55 192.73 18.82 152.5 -3.92 152.5 41.55"/><polygon class="cls-39" points="192.7 109.71 232.92 132.44 192.7 155.18 192.7 109.71"/><polygon class="cls-40" points="192.7 64.24 232.92 86.97 192.7 109.71 192.7 64.24"/><polygon class="cls-41" points="232.92 132.44 192.7 109.71 232.92 86.97 232.92 132.44"/><polygon class="cls-42" points="192.7 18.77 232.92 41.51 192.7 64.24 192.7 18.77"/><polygon class="cls-43" points="232.92 86.97 192.7 64.24 232.92 41.51 232.92 86.97"/><polygon class="cls-44" points="192.7 -26.65 232.92 -3.92 192.7 18.82 192.7 -26.65"/><polygon class="cls-45" points="232.92 41.55 192.7 18.82 232.92 -3.92 232.92 41.55"/><polygon class="cls-46" points="273.15 109.71 232.92 132.44 273.15 155.18 273.15 109.71"/><polygon class="cls-47" points="273.15 64.24 232.92 86.97 273.15 109.71 273.15 64.24"/><polygon class="cls-48" points="232.92 132.44 273.15 109.71 232.92 86.97 232.92 132.44"/><polygon class="cls-49" points="273.15 18.77 232.92 41.51 273.15 64.24 273.15 18.77"/><polygon class="cls-50" points="232.92 86.97 273.15 64.24 232.92 41.51 232.92 86.97"/><polygon class="cls-51" points="273.15 -26.65 232.92 -3.92 273.15 18.82 273.15 -26.65"/><polygon class="cls-52" points="232.92 41.55 273.15 18.82 232.92 -3.92 232.92 41.55"/><polygon class="cls-53" points="273.12 109.71 313.35 132.44 273.12 155.18 273.12 109.71"/><polygon class="cls-54" points="273.12 64.24 313.35 86.97 273.12 109.71 273.12 64.24"/><polygon class="cls-55" points="313.35 132.44 273.12 109.71 313.35 86.97 313.35 132.44"/><polygon class="cls-56" points="273.12 18.77 313.35 41.51 273.12 64.24 273.12 18.77"/><polygon class="cls-57" points="313.35 86.97 273.12 64.24 313.35 41.51 313.35 86.97"/><polygon class="cls-58" points="273.12 -26.65 313.35 -3.92 273.12 18.82 273.12 -26.65"/><polygon class="cls-59" points="313.35 41.55 273.12 18.82 313.35 -3.92 313.35 41.55"/><polygon class="cls-60" points="353.57 109.71 313.35 132.44 353.57 155.18 353.57 109.71"/><polygon class="cls-61" points="353.57 64.24 313.35 86.97 353.57 109.71 353.57 64.24"/><polygon class="cls-62" points="313.35 132.44 353.57 109.71 313.35 86.97 313.35 132.44"/><polygon class="cls-63" points="353.57 18.77 313.35 41.51 353.57 64.24 353.57 18.77"/><polygon class="cls-64" points="313.35 86.97 353.57 64.24 313.35 41.51 313.35 86.97"/><polygon class="cls-65" points="353.57 -26.65 313.35 -3.92 353.57 18.82 353.57 -26.65"/><polygon class="cls-66" points="313.35 41.55 353.57 18.82 313.35 -3.92 313.35 41.55"/><polygon class="cls-67" points="353.55 109.71 393.77 132.44 353.55 155.18 353.55 109.71"/><polygon class="cls-68" points="353.55 64.24 393.77 86.97 353.55 109.71 353.55 64.24"/><polygon class="cls-69" points="393.77 132.44 353.55 109.71 393.77 86.97 393.77 132.44"/><polygon class="cls-70" points="353.55 18.77 393.77 41.51 353.55 64.24 353.55 18.77"/><polygon class="cls-71" points="393.77 86.97 353.55 64.24 393.77 41.51 393.77 86.97"/><polygon class="cls-72" points="353.55 -26.65 393.77 -3.92 353.55 18.82 353.55 -26.65"/><polygon class="cls-73" points="393.77 41.55 353.55 18.82 393.77 -3.92 393.77 41.55"/><polygon class="cls-74" points="434 109.71 393.77 132.44 434 155.18 434 109.71"/><polygon class="cls-75" points="434 64.24 393.77 86.97 434 109.71 434 64.24"/><polygon class="cls-76" points="393.77 132.44 434 109.71 393.77 86.97 393.77 132.44"/><polygon class="cls-77" points="434 18.77 393.77 41.51 434 64.24 434 18.77"/><polygon class="cls-78" points="393.77 86.97 434 64.24 393.77 41.51 393.77 86.97"/><polygon class="cls-79" points="434 -26.65 393.77 -3.92 434 18.82 434 -26.65"/><polygon class="cls-80" points="393.77 41.55 434 18.82 393.77 -3.92 393.77 41.55"/><polygon class="cls-81" points="433.97 109.71 474.2 132.44 433.97 155.18 433.97 109.71"/><polygon class="cls-82" points="433.97 64.24 474.2 86.97 433.97 109.71 433.97 64.24"/><polygon class="cls-83" points="474.2 132.44 433.97 109.71 474.2 86.97 474.2 132.44"/><polygon class="cls-84" points="433.97 18.77 474.2 41.51 433.97 64.24 433.97 18.77"/><polygon class="cls-85" points="474.2 86.97 433.97 64.24 474.2 41.51 474.2 86.97"/><polygon class="cls-86" points="433.97 -26.65 474.2 -3.92 433.97 18.82 433.97 -26.65"/><polygon class="cls-87" points="474.2 41.55 433.97 18.82 474.2 -3.92 474.2 41.55"/><polygon class="cls-88" points="514.42 109.71 474.2 132.44 514.42 155.18 514.42 109.71"/><polygon class="cls-89" points="514.42 64.24 474.2 86.97 514.42 109.71 514.42 64.24"/><polygon class="cls-90" points="474.2 132.44 514.42 109.71 474.2 86.97 474.2 132.44"/><polygon class="cls-91" points="514.42 18.77 474.2 41.51 514.42 64.24 514.42 18.77"/><polygon class="cls-92" points="474.2 86.97 514.42 64.24 474.2 41.51 474.2 86.97"/><polygon class="cls-93" points="514.42 -26.65 474.2 -3.92 514.42 18.82 514.42 -26.65"/><polygon class="cls-94" points="474.2 41.55 514.42 18.82 474.2 -3.92 474.2 41.55"/><polygon class="cls-4" points="554.1 109.71 513.87 132.44 554.1 155.18 554.1 109.71"/><polygon class="cls-5" points="554.1 64.24 513.87 86.97 554.1 109.71 554.1 64.24"/><polygon class="cls-6" points="513.87 132.44 554.1 109.71 513.87 86.97 513.87 132.44"/><polygon class="cls-7" points="554.1 18.77 513.87 41.51 554.1 64.24 554.1 18.77"/><polygon class="cls-8" points="513.87 86.97 554.1 64.24 513.87 41.51 513.87 86.97"/><polygon class="cls-9" points="554.1 -26.65 513.87 -3.92 554.1 18.82 554.1 -26.65"/><polygon class="cls-10" points="513.87 41.55 554.1 18.82 513.87 -3.92 513.87 41.55"/><polygon class="cls-11" points="554.07 109.71 594.3 132.44 554.07 155.18 554.07 109.71"/><polygon class="cls-12" points="554.07 64.24 594.3 86.97 554.07 109.71 554.07 64.24"/><polygon class="cls-13" points="594.3 132.44 554.07 109.71 594.3 86.97 594.3 132.44"/><polygon class="cls-14" points="554.07 18.77 594.3 41.51 554.07 64.24 554.07 18.77"/><polygon class="cls-15" points="594.3 86.97 554.07 64.24 594.3 41.51 594.3 86.97"/><polygon class="cls-16" points="554.07 -26.65 594.3 -3.92 554.07 18.82 554.07 -26.65"/><polygon class="cls-17" points="594.3 41.55 554.07 18.82 594.3 -3.92 594.3 41.55"/><polygon class="cls-18" points="634.52 109.71 594.3 132.44 634.52 155.18 634.52 109.71"/><polygon class="cls-19" points="634.52 64.24 594.3 86.97 634.52 109.71 634.52 64.24"/><polygon class="cls-20" points="594.3 132.44 634.52 109.71 594.3 86.97 594.3 132.44"/><polygon class="cls-21" points="634.52 18.77 594.3 41.51 634.52 64.24 634.52 18.77"/><polygon class="cls-22" points="594.3 86.97 634.52 64.24 594.3 41.51 594.3 86.97"/><polygon class="cls-23" points="634.52 -26.65 594.3 -3.92 634.52 18.82 634.52 -26.65"/><polygon class="cls-24" points="594.3 41.55 634.52 18.82 594.3 -3.92 594.3 41.55"/><polygon class="cls-25" points="634.5 109.71 674.72 132.44 634.5 155.18 634.5 109.71"/><polygon class="cls-26" points="634.5 64.24 674.72 86.97 634.5 109.71 634.5 64.24"/><polygon class="cls-27" points="674.72 132.44 634.5 109.71 674.72 86.97 674.72 132.44"/><polygon class="cls-28" points="634.5 18.77 674.72 41.51 634.5 64.24 634.5 18.77"/><polygon class="cls-29" points="674.72 86.97 634.5 64.24 674.72 41.51 674.72 86.97"/><polygon class="cls-30" points="634.5 -26.65 674.72 -3.92 634.5 18.82 634.5 -26.65"/><polygon class="cls-31" points="674.72 41.55 634.5 18.82 674.72 -3.92 674.72 41.55"/><polygon class="cls-32" points="714.95 109.71 674.72 132.44 714.95 155.18 714.95 109.71"/><polygon class="cls-33" points="714.95 64.24 674.72 86.97 714.95 109.71 714.95 64.24"/><polygon class="cls-34" points="674.72 132.44 714.95 109.71 674.72 86.97 674.72 132.44"/><polygon class="cls-35" points="714.95 18.77 674.72 41.51 714.95 64.24 714.95 18.77"/><polygon class="cls-36" points="674.72 86.97 714.95 64.24 674.72 41.51 674.72 86.97"/><polygon class="cls-37" points="714.95 -26.65 674.72 -3.92 714.95 18.82 714.95 -26.65"/><polygon class="cls-38" points="674.72 41.55 714.95 18.82 674.72 -3.92 674.72 41.55"/><polygon class="cls-39" points="714.92 109.71 755.15 132.44 714.92 155.18 714.92 109.71"/><polygon class="cls-40" points="714.92 64.24 755.15 86.97 714.92 109.71 714.92 64.24"/><polygon class="cls-41" points="755.15 132.44 714.92 109.71 755.15 86.97 755.15 132.44"/><polygon class="cls-42" points="714.92 18.77 755.15 41.51 714.92 64.24 714.92 18.77"/><polygon class="cls-43" points="755.15 86.97 714.92 64.24 755.15 41.51 755.15 86.97"/><polygon class="cls-44" points="714.92 -26.65 755.15 -3.92 714.92 18.82 714.92 -26.65"/><polygon class="cls-45" points="755.15 41.55 714.92 18.82 755.15 -3.92 755.15 41.55"/><polygon class="cls-46" points="795.37 109.71 755.15 132.44 795.37 155.18 795.37 109.71"/><polygon class="cls-47" points="795.37 64.24 755.15 86.97 795.37 109.71 795.37 64.24"/><polygon class="cls-48" points="755.15 132.44 795.37 109.71 755.15 86.97 755.15 132.44"/><polygon class="cls-49" points="795.37 18.77 755.15 41.51 795.37 64.24 795.37 18.77"/><polygon class="cls-50" points="755.15 86.97 795.37 64.24 755.15 41.51 755.15 86.97"/><polygon class="cls-51" points="795.37 -26.65 755.15 -3.92 795.37 18.82 795.37 -26.65"/><polygon class="cls-52" points="755.15 41.55 795.37 18.82 755.15 -3.92 755.15 41.55"/><polygon class="cls-53" points="795.35 109.71 835.57 132.44 795.35 155.18 795.35 109.71"/><polygon class="cls-54" points="795.35 64.24 835.57 86.97 795.35 109.71 795.35 64.24"/><polygon class="cls-55" points="835.57 132.44 795.35 109.71 835.57 86.97 835.57 132.44"/><polygon class="cls-56" points="795.35 18.77 835.57 41.51 795.35 64.24 795.35 18.77"/><polygon class="cls-57" points="835.57 86.97 795.35 64.24 835.57 41.51 835.57 86.97"/><polygon class="cls-58" points="795.35 -26.65 835.57 -3.92 795.35 18.82 795.35 -26.65"/><polygon class="cls-59" points="835.57 41.55 795.35 18.82 835.57 -3.92 835.57 41.55"/><polygon class="cls-60" points="875.8 109.71 835.57 132.44 875.8 155.18 875.8 109.71"/><polygon class="cls-61" points="875.8 64.24 835.57 86.97 875.8 109.71 875.8 64.24"/><polygon class="cls-62" points="835.57 132.44 875.8 109.71 835.57 86.97 835.57 132.44"/><polygon class="cls-63" points="875.8 18.77 835.57 41.51 875.8 64.24 875.8 18.77"/><polygon class="cls-64" points="835.57 86.97 875.8 64.24 835.57 41.51 835.57 86.97"/><polygon class="cls-65" points="875.8 -26.65 835.57 -3.92 875.8 18.82 875.8 -26.65"/><polygon class="cls-66" points="835.57 41.55 875.8 18.82 835.57 -3.92 835.57 41.55"/><polygon class="cls-67" points="875.77 109.71 916 132.44 875.77 155.18 875.77 109.71"/><polygon class="cls-68" points="875.77 64.24 916 86.97 875.77 109.71 875.77 64.24"/><polygon class="cls-69" points="916 132.44 875.77 109.71 916 86.97 916 132.44"/><polygon class="cls-70" points="875.77 18.77 916 41.51 875.77 64.24 875.77 18.77"/><polygon class="cls-71" points="916 86.97 875.77 64.24 916 41.51 916 86.97"/><polygon class="cls-72" points="875.77 -26.65 916 -3.92 875.77 18.82 875.77 -26.65"/><polygon class="cls-73" points="916 41.55 875.77 18.82 916 -3.92 916 41.55"/><polygon class="cls-74" points="956.22 109.71 916 132.44 956.22 155.18 956.22 109.71"/><polygon class="cls-75" points="956.22 64.24 916 86.97 956.22 109.71 956.22 64.24"/><polygon class="cls-76" points="916 132.44 956.22 109.71 916 86.97 916 132.44"/><polygon class="cls-77" points="956.22 18.77 916 41.51 956.22 64.24 956.22 18.77"/><polygon class="cls-78" points="916 86.97 956.22 64.24 916 41.51 916 86.97"/><polygon class="cls-79" points="956.22 -26.65 916 -3.92 956.22 18.82 956.22 -26.65"/><polygon class="cls-80" points="916 41.55 956.22 18.82 916 -3.92 916 41.55"/><polygon class="cls-81" points="956.19 109.71 996.42 132.44 956.19 155.18 956.19 109.71"/><polygon class="cls-82" points="956.19 64.24 996.42 86.97 956.19 109.71 956.19 64.24"/><polygon class="cls-83" points="996.42 132.44 956.19 109.71 996.42 86.97 996.42 132.44"/><polygon class="cls-84" points="956.19 18.77 996.42 41.51 956.19 64.24 956.19 18.77"/><polygon class="cls-85" points="996.42 86.97 956.19 64.24 996.42 41.51 996.42 86.97"/><polygon class="cls-86" points="956.19 -26.65 996.42 -3.92 956.19 18.82 956.19 -26.65"/><polygon class="cls-87" points="996.42 41.55 956.19 18.82 996.42 -3.92 996.42 41.55"/><polygon class="cls-88" points="1036.65 109.71 996.42 132.44 1036.65 155.18 1036.65 109.71"/><polygon class="cls-89" points="1036.65 64.24 996.42 86.97 1036.65 109.71 1036.65 64.24"/><polygon class="cls-90" points="996.42 132.44 1036.65 109.71 996.42 86.97 996.42 132.44"/><polygon class="cls-91" points="1036.65 18.77 996.42 41.51 1036.65 64.24 1036.65 18.77"/><polygon class="cls-92" points="996.42 86.97 1036.65 64.24 996.42 41.51 996.42 86.97"/><polygon class="cls-93" points="1036.65 -26.65 996.42 -3.92 1036.65 18.82 1036.65 -26.65"/><polygon class="cls-94" points="996.42 41.55 1036.65 18.82 996.42 -3.92 996.42 41.55"/></g><rect class="cls-95" x="-7.34" y="-1.84" width="1043.22" height="119.76"/></svg>