<?xml version="1.0" encoding="utf-8"?>
<!-- Generator: Adobe Illustrator 24.1.3, SVG Export Plug-In . SVG Version: 6.00 Build 0)  -->
<svg version="1.1" id="Layer_1" xmlns="http://www.w3.org/2000/svg" xmlns:xlink="http://www.w3.org/1999/xlink" x="0px" y="0px"
	 viewBox="0 0 1024 110" style="enable-background:new 0 0 1024 110;" xml:space="preserve">
<style type="text/css">
	.st0{clip-path:url(#SVGID_2_);}
	.st1{fill:url(#SVGID_3_);}
	.st2{fill:#084E99;}
	.st3{fill:#034D92;}
	.st4{fill:#08529B;}
	.st5{fill:#0A5CA3;}
	.st6{fill:#074B94;}
	.st7{fill:#1571B3;}
	.st8{fill:#0A6DB2;}
	.st9{fill:#073D89;}
	.st10{fill:#0F71B2;}
	.st11{fill:#064C96;}
	.st12{fill:#1661A4;}
	.st13{fill:#07529B;}
	.st14{fill:#106BB0;}
	.st15{fill:#0D85C0;}
	.st16{fill:#1576B3;}
	.st17{fill:#08559D;}
	.st18{fill:#0D78B8;}
	.st19{fill:#0863A9;}
	.st20{fill:#1865A8;}
	.st21{fill:#0872B5;}
	.st22{fill:#1573B1;}
	.st23{fill:#106CAD;}
	.st24{fill:#1278B5;}
	.st25{fill:#0F7AB9;}
	.st26{fill:#0A79BA;}
	.st27{fill:#1568AA;}
	.st28{fill:#0760A8;}
	.st29{fill:#1490CB;}
	.st30{fill:#1362A5;}
	.st31{fill:#1C6BAC;}
	.st32{fill:#0761A7;}
	.st33{fill:#0C61A6;}
	.st34{fill:#065CA3;}
	.st35{fill:#0D7FB8;}
	.st36{fill:#1471B3;}
	.st37{fill:#0759A1;}
	.st38{fill:#0C6AB1;}
	.st39{fill:#0856A0;}
	.st40{fill:#104D95;}
	.st41{fill:#1363A6;}
	.st42{fill:#1A8AC7;}
	.st43{fill:#0E5CA4;}
	.st44{fill:#1264A6;}
	.st45{fill:#0960A5;}
	.st46{fill:#0B59A5;}
	.st47{fill:#0A84C1;}
	.st48{fill:#0B72B5;}
	.st49{fill:#086FB2;}
	.st50{fill:#0E7BBC;}
	.st51{fill:#0C5398;}
	.st52{fill:#0D72B4;}
	.st53{fill:#08549F;}
	.st54{fill:#1470AF;}
	.st55{fill:#176EAF;}
	.st56{fill:#0D82BE;}
	.st57{fill:#155CA2;}
	.st58{fill:#0957A1;}
	.st59{fill:#024D95;}
	.st60{fill:#055199;}
	.st61{fill:#1B72B5;}
	.st62{fill:#0869AE;}
	.st63{fill:#0A7EBD;}
	.st64{fill:#0C75B7;}
	.st65{fill:#1769AD;}
	.st66{fill:#0B61A9;}
	.st67{fill:#1C80C4;}
	.st68{fill:#167BB7;}
	.st69{fill:#175CA3;}
	.st70{fill:#0B7ABB;}
	.st71{fill:#0D7DBE;}
	.st72{fill:#114386;}
	.st73{fill:#1569AD;}
	.st74{fill:#115DA1;}
	.st75{fill:#0F62A7;}
	.st76{fill:#156DAD;}
	.st77{fill:#1076B8;}
	.st78{fill:#0D61AB;}
	.st79{fill:#0A56A1;}
	.st80{fill:#044892;}
	.st81{fill:#0D599E;}
	.st82{fill:#1088C4;}
	.st83{fill:#0F5DA5;}
	.st84{fill:#0B73B6;}
	.st85{fill:#0D86C1;}
	.st86{fill:#095499;}
	.st87{fill:#146EAE;}
	.st88{fill:#0C5FA7;}
	.st89{fill:#0B65AB;}
	.st90{fill:#0E75B9;}
	.st91{fill:#147CBC;}
	.st92{fill:#0E7EBC;}
	.st93{opacity:0.5;fill:#0694CC;enable-background:new    ;}
</style>
<g>
	<defs>
		<rect id="SVGID_1_" x="-10.8" y="-5.1" width="1049.3" height="122.2"/>
	</defs>
	<clipPath id="SVGID_2_">
		<use xlink:href="#SVGID_1_"  style="overflow:visible;"/>
	</clipPath>
	<g class="st0">
		
			<linearGradient id="SVGID_3_" gradientUnits="userSpaceOnUse" x1="253.035" y1="832.3" x2="253.035" y2="309.53" gradientTransform="matrix(1 0 0 1 0 -518)">
			<stop  offset="0" style="stop-color:#3982DB"/>
			<stop  offset="0.44" style="stop-color:#51BBED"/>
			<stop  offset="0.81" style="stop-color:#62E4FA"/>
			<stop  offset="1" style="stop-color:#69F3FF"/>
		</linearGradient>
		<rect x="-8.4" y="-208.5" class="st1" width="522.8" height="522.8"/>
		<polygon class="st2" points="31.9,109.7 -8.4,132.4 31.9,155.2 		"/>
		<polygon class="st3" points="31.9,64.2 -8.4,87 31.9,109.7 		"/>
		<polygon class="st4" points="-8.4,132.4 31.9,109.7 -8.4,87 		"/>
		<polygon class="st5" points="31.9,18.8 -8.4,41.5 31.9,64.2 		"/>
		<polygon class="st6" points="-8.4,87 31.9,64.2 -8.4,41.5 		"/>
		<polygon class="st7" points="31.9,-26.6 -8.4,-3.9 31.9,18.8 		"/>
		<polygon class="st8" points="-8.4,41.5 31.9,18.8 -8.4,-3.9 		"/>
		<polygon class="st9" points="31.9,109.7 72.1,132.4 31.9,155.2 		"/>
		<polygon class="st10" points="31.9,64.2 72.1,87 31.9,109.7 		"/>
		<polygon class="st11" points="72.1,132.4 31.9,109.7 72.1,87 		"/>
		<polygon class="st12" points="31.9,18.8 72.1,41.5 31.9,64.2 		"/>
		<polygon class="st13" points="72.1,87 31.9,64.2 72.1,41.5 		"/>
		<polygon class="st14" points="31.9,-26.6 72.1,-3.9 31.9,18.8 		"/>
		<polygon class="st15" points="72.1,41.5 31.9,18.8 72.1,-3.9 		"/>
		<polygon class="st16" points="112.3,109.7 72.1,132.4 112.3,155.2 		"/>
		<polygon class="st17" points="112.3,64.2 72.1,87 112.3,109.7 		"/>
		<polygon class="st18" points="72.1,132.4 112.3,109.7 72.1,87 		"/>
		<polygon class="st19" points="112.3,18.8 72.1,41.5 112.3,64.2 		"/>
		<polygon class="st20" points="72.1,87 112.3,64.2 72.1,41.5 		"/>
		<polygon class="st21" points="112.3,-26.6 72.1,-3.9 112.3,18.8 		"/>
		<polygon class="st22" points="72.1,41.5 112.3,18.8 72.1,-3.9 		"/>
		<polygon class="st23" points="112.3,109.7 152.5,132.4 112.3,155.2 		"/>
		<polygon class="st24" points="112.3,64.2 152.5,87 112.3,109.7 		"/>
		<polygon class="st25" points="152.5,132.4 112.3,109.7 152.5,87 		"/>
		<polygon class="st26" points="112.3,18.8 152.5,41.5 112.3,64.2 		"/>
		<polygon class="st27" points="152.5,87 112.3,64.2 152.5,41.5 		"/>
		<polygon class="st28" points="112.3,-26.6 152.5,-3.9 112.3,18.8 		"/>
		<polygon class="st29" points="152.5,41.5 112.3,18.8 152.5,-3.9 		"/>
		<polygon class="st30" points="192.7,109.7 152.5,132.4 192.7,155.2 		"/>
		<polygon class="st31" points="192.7,64.2 152.5,87 192.7,109.7 		"/>
		<polygon class="st32" points="152.5,132.4 192.7,109.7 152.5,87 		"/>
		<polygon class="st33" points="192.7,18.8 152.5,41.5 192.7,64.2 		"/>
		<polygon class="st34" points="152.5,87 192.7,64.2 152.5,41.5 		"/>
		<polygon class="st35" points="192.7,-26.6 152.5,-3.9 192.7,18.8 		"/>
		<polygon class="st36" points="152.5,41.5 192.7,18.8 152.5,-3.9 		"/>
		<polygon class="st37" points="192.7,109.7 232.9,132.4 192.7,155.2 		"/>
		<polygon class="st38" points="192.7,64.2 232.9,87 192.7,109.7 		"/>
		<polygon class="st39" points="232.9,132.4 192.7,109.7 232.9,87 		"/>
		<polygon class="st40" points="192.7,18.8 232.9,41.5 192.7,64.2 		"/>
		<polygon class="st41" points="232.9,87 192.7,64.2 232.9,41.5 		"/>
		<polygon class="st42" points="192.7,-26.6 232.9,-3.9 192.7,18.8 		"/>
		<polygon class="st43" points="232.9,41.5 192.7,18.8 232.9,-3.9 		"/>
		<polygon class="st44" points="273.1,109.7 232.9,132.4 273.1,155.2 		"/>
		<polygon class="st45" points="273.1,64.2 232.9,87 273.1,109.7 		"/>
		<polygon class="st46" points="232.9,132.4 273.1,109.7 232.9,87 		"/>
		<polygon class="st47" points="273.1,18.8 232.9,41.5 273.1,64.2 		"/>
		<polygon class="st48" points="232.9,87 273.1,64.2 232.9,41.5 		"/>
		<polygon class="st49" points="273.1,-26.6 232.9,-3.9 273.1,18.8 		"/>
		<polygon class="st50" points="232.9,41.5 273.1,18.8 232.9,-3.9 		"/>
		<polygon class="st51" points="273.1,109.7 313.4,132.4 273.1,155.2 		"/>
		<polygon class="st52" points="273.1,64.2 313.4,87 273.1,109.7 		"/>
		<polygon class="st53" points="313.4,132.4 273.1,109.7 313.4,87 		"/>
		<polygon class="st54" points="273.1,18.8 313.4,41.5 273.1,64.2 		"/>
		<polygon class="st55" points="313.4,87 273.1,64.2 313.4,41.5 		"/>
		<polygon class="st56" points="273.1,-26.6 313.4,-3.9 273.1,18.8 		"/>
		<polygon class="st57" points="313.4,41.5 273.1,18.8 313.4,-3.9 		"/>
		<polygon class="st58" points="353.6,109.7 313.4,132.4 353.6,155.2 		"/>
		<polygon class="st59" points="353.6,64.2 313.4,87 353.6,109.7 		"/>
		<polygon class="st60" points="313.4,132.4 353.6,109.7 313.4,87 		"/>
		<polygon class="st61" points="353.6,18.8 313.4,41.5 353.6,64.2 		"/>
		<polygon class="st62" points="313.4,87 353.6,64.2 313.4,41.5 		"/>
		<polygon class="st63" points="353.6,-26.6 313.4,-3.9 353.6,18.8 		"/>
		<polygon class="st64" points="313.4,41.5 353.6,18.8 313.4,-3.9 		"/>
		<polygon class="st65" points="353.5,109.7 393.8,132.4 353.5,155.2 		"/>
		<polygon class="st66" points="353.5,64.2 393.8,87 353.5,109.7 		"/>
		<polygon class="st67" points="393.8,132.4 353.5,109.7 393.8,87 		"/>
		<polygon class="st68" points="353.5,18.8 393.8,41.5 353.5,64.2 		"/>
		<polygon class="st69" points="393.8,87 353.5,64.2 393.8,41.5 		"/>
		<polygon class="st70" points="353.5,-26.6 393.8,-3.9 353.5,18.8 		"/>
		<polygon class="st71" points="393.8,41.5 353.5,18.8 393.8,-3.9 		"/>
		<polygon class="st72" points="434,109.7 393.8,132.4 434,155.2 		"/>
		<polygon class="st73" points="434,64.2 393.8,87 434,109.7 		"/>
		<polygon class="st74" points="393.8,132.4 434,109.7 393.8,87 		"/>
		<polygon class="st75" points="434,18.8 393.8,41.5 434,64.2 		"/>
		<polygon class="st76" points="393.8,87 434,64.2 393.8,41.5 		"/>
		<polygon class="st77" points="434,-26.6 393.8,-3.9 434,18.8 		"/>
		<polygon class="st78" points="393.8,41.5 434,18.8 393.8,-3.9 		"/>
		<polygon class="st79" points="434,109.7 474.2,132.4 434,155.2 		"/>
		<polygon class="st80" points="434,64.2 474.2,87 434,109.7 		"/>
		<polygon class="st81" points="474.2,132.4 434,109.7 474.2,87 		"/>
		<polygon class="st82" points="434,18.8 474.2,41.5 434,64.2 		"/>
		<polygon class="st83" points="474.2,87 434,64.2 474.2,41.5 		"/>
		<polygon class="st84" points="434,-26.6 474.2,-3.9 434,18.8 		"/>
		<polygon class="st85" points="474.2,41.5 434,18.8 474.2,-3.9 		"/>
		<polygon class="st86" points="514.4,109.7 474.2,132.4 514.4,155.2 		"/>
		<polygon class="st87" points="514.4,64.2 474.2,87 514.4,109.7 		"/>
		<polygon class="st88" points="474.2,132.4 514.4,109.7 474.2,87 		"/>
		<polygon class="st89" points="514.4,18.8 474.2,41.5 514.4,64.2 		"/>
		<polygon class="st90" points="474.2,87 514.4,64.2 474.2,41.5 		"/>
		<polygon class="st91" points="514.4,-26.6 474.2,-3.9 514.4,18.8 		"/>
		<polygon class="st92" points="474.2,41.5 514.4,18.8 474.2,-3.9 		"/>
		<polygon class="st2" points="554.1,109.7 513.9,132.4 554.1,155.2 		"/>
		<polygon class="st3" points="554.1,64.2 513.9,87 554.1,109.7 		"/>
		<polygon class="st4" points="513.9,132.4 554.1,109.7 513.9,87 		"/>
		<polygon class="st5" points="554.1,18.8 513.9,41.5 554.1,64.2 		"/>
		<polygon class="st6" points="513.9,87 554.1,64.2 513.9,41.5 		"/>
		<polygon class="st7" points="554.1,-26.6 513.9,-3.9 554.1,18.8 		"/>
		<polygon class="st8" points="513.9,41.5 554.1,18.8 513.9,-3.9 		"/>
		<polygon class="st9" points="554.1,109.7 594.3,132.4 554.1,155.2 		"/>
		<polygon class="st10" points="554.1,64.2 594.3,87 554.1,109.7 		"/>
		<polygon class="st11" points="594.3,132.4 554.1,109.7 594.3,87 		"/>
		<polygon class="st12" points="554.1,18.8 594.3,41.5 554.1,64.2 		"/>
		<polygon class="st13" points="594.3,87 554.1,64.2 594.3,41.5 		"/>
		<polygon class="st14" points="554.1,-26.6 594.3,-3.9 554.1,18.8 		"/>
		<polygon class="st15" points="594.3,41.5 554.1,18.8 594.3,-3.9 		"/>
		<polygon class="st16" points="634.5,109.7 594.3,132.4 634.5,155.2 		"/>
		<polygon class="st17" points="634.5,64.2 594.3,87 634.5,109.7 		"/>
		<polygon class="st18" points="594.3,132.4 634.5,109.7 594.3,87 		"/>
		<polygon class="st19" points="634.5,18.8 594.3,41.5 634.5,64.2 		"/>
		<polygon class="st20" points="594.3,87 634.5,64.2 594.3,41.5 		"/>
		<polygon class="st21" points="634.5,-26.6 594.3,-3.9 634.5,18.8 		"/>
		<polygon class="st22" points="594.3,41.5 634.5,18.8 594.3,-3.9 		"/>
		<polygon class="st23" points="634.5,109.7 674.7,132.4 634.5,155.2 		"/>
		<polygon class="st24" points="634.5,64.2 674.7,87 634.5,109.7 		"/>
		<polygon class="st25" points="674.7,132.4 634.5,109.7 674.7,87 		"/>
		<polygon class="st26" points="634.5,18.8 674.7,41.5 634.5,64.2 		"/>
		<polygon class="st27" points="674.7,87 634.5,64.2 674.7,41.5 		"/>
		<polygon class="st28" points="634.5,-26.6 674.7,-3.9 634.5,18.8 		"/>
		<polygon class="st29" points="674.7,41.5 634.5,18.8 674.7,-3.9 		"/>
		<polygon class="st30" points="715,109.7 674.7,132.4 715,155.2 		"/>
		<polygon class="st31" points="715,64.2 674.7,87 715,109.7 		"/>
		<polygon class="st32" points="674.7,132.4 715,109.7 674.7,87 		"/>
		<polygon class="st33" points="715,18.8 674.7,41.5 715,64.2 		"/>
		<polygon class="st34" points="674.7,87 715,64.2 674.7,41.5 		"/>
		<polygon class="st35" points="715,-26.6 674.7,-3.9 715,18.8 		"/>
		<polygon class="st36" points="674.7,41.5 715,18.8 674.7,-3.9 		"/>
		<polygon class="st37" points="714.9,109.7 755.2,132.4 714.9,155.2 		"/>
		<polygon class="st38" points="714.9,64.2 755.2,87 714.9,109.7 		"/>
		<polygon class="st39" points="755.2,132.4 714.9,109.7 755.2,87 		"/>
		<polygon class="st40" points="714.9,18.8 755.2,41.5 714.9,64.2 		"/>
		<polygon class="st41" points="755.2,87 714.9,64.2 755.2,41.5 		"/>
		<polygon class="st42" points="714.9,-26.6 755.2,-3.9 714.9,18.8 		"/>
		<polygon class="st43" points="755.2,41.5 714.9,18.8 755.2,-3.9 		"/>
		<polygon class="st44" points="795.4,109.7 755.2,132.4 795.4,155.2 		"/>
		<polygon class="st45" points="795.4,64.2 755.2,87 795.4,109.7 		"/>
		<polygon class="st46" points="755.2,132.4 795.4,109.7 755.2,87 		"/>
		<polygon class="st47" points="795.4,18.8 755.2,41.5 795.4,64.2 		"/>
		<polygon class="st48" points="755.2,87 795.4,64.2 755.2,41.5 		"/>
		<polygon class="st49" points="795.4,-26.6 755.2,-3.9 795.4,18.8 		"/>
		<polygon class="st50" points="755.2,41.5 795.4,18.8 755.2,-3.9 		"/>
		<polygon class="st51" points="795.3,109.7 835.6,132.4 795.3,155.2 		"/>
		<polygon class="st52" points="795.3,64.2 835.6,87 795.3,109.7 		"/>
		<polygon class="st53" points="835.6,132.4 795.3,109.7 835.6,87 		"/>
		<polygon class="st54" points="795.3,18.8 835.6,41.5 795.3,64.2 		"/>
		<polygon class="st55" points="835.6,87 795.3,64.2 835.6,41.5 		"/>
		<polygon class="st56" points="795.3,-26.6 835.6,-3.9 795.3,18.8 		"/>
		<polygon class="st57" points="835.6,41.5 795.3,18.8 835.6,-3.9 		"/>
		<polygon class="st58" points="875.8,109.7 835.6,132.4 875.8,155.2 		"/>
		<polygon class="st59" points="875.8,64.2 835.6,87 875.8,109.7 		"/>
		<polygon class="st60" points="835.6,132.4 875.8,109.7 835.6,87 		"/>
		<polygon class="st61" points="875.8,18.8 835.6,41.5 875.8,64.2 		"/>
		<polygon class="st62" points="835.6,87 875.8,64.2 835.6,41.5 		"/>
		<polygon class="st63" points="875.8,-26.6 835.6,-3.9 875.8,18.8 		"/>
		<polygon class="st64" points="835.6,41.5 875.8,18.8 835.6,-3.9 		"/>
		<polygon class="st65" points="875.8,109.7 916,132.4 875.8,155.2 		"/>
		<polygon class="st66" points="875.8,64.2 916,87 875.8,109.7 		"/>
		<polygon class="st67" points="916,132.4 875.8,109.7 916,87 		"/>
		<polygon class="st68" points="875.8,18.8 916,41.5 875.8,64.2 		"/>
		<polygon class="st69" points="916,87 875.8,64.2 916,41.5 		"/>
		<polygon class="st70" points="875.8,-26.6 916,-3.9 875.8,18.8 		"/>
		<polygon class="st71" points="916,41.5 875.8,18.8 916,-3.9 		"/>
		<polygon class="st72" points="956.2,109.7 916,132.4 956.2,155.2 		"/>
		<polygon class="st73" points="956.2,64.2 916,87 956.2,109.7 		"/>
		<polygon class="st74" points="916,132.4 956.2,109.7 916,87 		"/>
		<polygon class="st75" points="956.2,18.8 916,41.5 956.2,64.2 		"/>
		<polygon class="st76" points="916,87 956.2,64.2 916,41.5 		"/>
		<polygon class="st77" points="956.2,-26.6 916,-3.9 956.2,18.8 		"/>
		<polygon class="st78" points="916,41.5 956.2,18.8 916,-3.9 		"/>
		<polygon class="st79" points="956.2,109.7 996.4,132.4 956.2,155.2 		"/>
		<polygon class="st80" points="956.2,64.2 996.4,87 956.2,109.7 		"/>
		<polygon class="st81" points="996.4,132.4 956.2,109.7 996.4,87 		"/>
		<polygon class="st82" points="956.2,18.8 996.4,41.5 956.2,64.2 		"/>
		<polygon class="st83" points="996.4,87 956.2,64.2 996.4,41.5 		"/>
		<polygon class="st84" points="956.2,-26.6 996.4,-3.9 956.2,18.8 		"/>
		<polygon class="st85" points="996.4,41.5 956.2,18.8 996.4,-3.9 		"/>
		<polygon class="st86" points="1036.7,109.7 996.4,132.4 1036.7,155.2 		"/>
		<polygon class="st87" points="1036.7,64.2 996.4,87 1036.7,109.7 		"/>
		<polygon class="st88" points="996.4,132.4 1036.7,109.7 996.4,87 		"/>
		<polygon class="st89" points="1036.7,18.8 996.4,41.5 1036.7,64.2 		"/>
		<polygon class="st90" points="996.4,87 1036.7,64.2 996.4,41.5 		"/>
		<polygon class="st91" points="1036.7,-26.6 996.4,-3.9 1036.7,18.8 		"/>
		<polygon class="st92" points="996.4,41.5 1036.7,18.8 996.4,-3.9 		"/>
	</g>
</g>
<rect x="-7.3" y="-1.8" class="st93" width="1043.2" height="119.8"/>
</svg>
