<?xml version="1.0" encoding="utf-8"?>
<!-- Generator: Adobe Illustrator 25.2.1, SVG Export Plug-In . SVG Version: 6.00 Build 0)  -->
<svg version="1.1" id="Layer_1" xmlns="http://www.w3.org/2000/svg" xmlns:xlink="http://www.w3.org/1999/xlink" x="0px" y="0px"
	 viewBox="0 0 121.63 96.29" style="enable-background:new 0 0 121.63 96.29;" xml:space="preserve">
<style type="text/css">
	.st0{clip-path:url(#SVGID_2_);}
	.st1{clip-path:url(#SVGID_4_);}
	.st2{fill:#FFFFFF;}
	.st3{fill:#F4F4F4;}
	.st4{fill:#85386E;}
	.st5{fill:#7038B5;}
	.st6{fill:#285A95;}
	.st7{fill:#7F4C19;}
	.st8{fill:#425E2C;}
	.st9{fill:#245A56;}
	.st10{clip-path:url(#SVGID_6_);}
	.st11{clip-path:url(#SVGID_8_);}
	.st12{clip-path:url(#SVGID_10_);fill:#010101;}
	.st13{clip-path:url(#SVGID_10_);fill:#823FC7;}
	.st14{clip-path:url(#SVGID_10_);fill:#221F20;}
	.st15{clip-path:url(#SVGID_12_);}
	.st16{fill:none;}
	.st17{clip-path:url(#SVGID_14_);}
	.st18{clip-path:url(#SVGID_16_);fill:#816EE3;}
	.st19{clip-path:url(#SVGID_16_);fill:#8F7CF1;}
	.st20{clip-path:url(#SVGID_16_);fill:#7158D5;}
	.st21{clip-path:url(#SVGID_16_);fill:#070D45;}
	.st22{clip-path:url(#SVGID_16_);fill:#261880;}
	.st23{clip-path:url(#SVGID_16_);fill:#4F38B4;}
	.st24{clip-path:url(#SVGID_16_);fill:#0B0760;}
	.st25{clip-path:url(#SVGID_16_);fill:#927FF4;}
	.st26{clip-path:url(#SVGID_16_);fill:#7861D6;}
	.st27{clip-path:url(#SVGID_16_);fill:#735BD2;}
	.st28{clip-path:url(#SVGID_16_);fill:#110E59;}
	.st29{clip-path:url(#SVGID_16_);fill:#000342;}
	.st30{clip-path:url(#SVGID_16_);fill:#000131;}
	.st31{clip-path:url(#SVGID_16_);fill:#5E47C1;}
	.st32{clip-path:url(#SVGID_16_);fill:#2C188A;}
	.st33{clip-path:url(#SVGID_16_);fill:#241583;}
	.st34{clip-path:url(#SVGID_16_);fill:#000329;}
	.st35{clip-path:url(#SVGID_16_);fill:#5D43BA;}
	.st36{clip-path:url(#SVGID_16_);fill:#583DB9;}
	.st37{clip-path:url(#SVGID_16_);fill:#5045BE;}
	.st38{clip-path:url(#SVGID_16_);fill:#080661;}
	.st39{clip-path:url(#SVGID_16_);fill:#09065F;}
	.st40{clip-path:url(#SVGID_16_);fill:#02073A;}
	.st41{clip-path:url(#SVGID_16_);fill:#8C79EE;}
	.st42{clip-path:url(#SVGID_16_);fill:#01044C;}
	.st43{clip-path:url(#SVGID_16_);fill:#16106D;}
	.st44{clip-path:url(#SVGID_16_);fill:#442BA5;}
	.st45{clip-path:url(#SVGID_16_);fill:#5D45C2;}
	.st46{clip-path:url(#SVGID_16_);fill:#8B78EC;}
	.st47{clip-path:url(#SVGID_16_);fill:#7E69DC;}
	.st48{clip-path:url(#SVGID_16_);fill:#A390F7;}
	.st49{clip-path:url(#SVGID_16_);fill:#806CE7;}
	.st50{clip-path:url(#SVGID_16_);fill:#08054F;}
	.st51{clip-path:url(#SVGID_16_);fill:#000238;}
	.st52{clip-path:url(#SVGID_16_);fill:#171F63;}
	.st53{clip-path:url(#SVGID_16_);fill:#36249B;}
	.st54{clip-path:url(#SVGID_16_);fill:#3E279D;}
	.st55{clip-path:url(#SVGID_16_);fill:#00012E;}
	.st56{clip-path:url(#SVGID_16_);fill:#241A7C;}
	.st57{clip-path:url(#SVGID_16_);fill:#30218C;}
	.st58{clip-path:url(#SVGID_16_);fill:#6851CD;}
	.st59{clip-path:url(#SVGID_16_);fill:#8572E4;}
	.st60{clip-path:url(#SVGID_16_);fill:#0F0B54;}
	.st61{clip-path:url(#SVGID_16_);fill:#8D7EEC;}
	.st62{clip-path:url(#SVGID_16_);fill:#806DE8;}
	.st63{clip-path:url(#SVGID_16_);fill:#6E56CF;}
	.st64{clip-path:url(#SVGID_16_);fill:#00033A;}
	.st65{clip-path:url(#SVGID_16_);fill:#10144F;}
	.st66{clip-path:url(#SVGID_16_);fill:#04073C;}
	.st67{clip-path:url(#SVGID_16_);fill:#2E1D89;}
	.st68{clip-path:url(#SVGID_16_);fill:#392B95;}
	.st69{clip-path:url(#SVGID_16_);fill:#110862;}
	.st70{clip-path:url(#SVGID_16_);fill:#191469;}
	.st71{clip-path:url(#SVGID_16_);fill:#553BB4;}
	.st72{clip-path:url(#SVGID_16_);fill:#735BD8;}
	.st73{clip-path:url(#SVGID_16_);fill:#00012C;}
	.st74{clip-path:url(#SVGID_16_);fill:#836FE1;}
	.st75{clip-path:url(#SVGID_16_);fill:#816CE2;}
	.st76{clip-path:url(#SVGID_16_);fill:#8675E0;}
	.st77{clip-path:url(#SVGID_16_);fill:#3F2A9E;}
	.st78{clip-path:url(#SVGID_16_);fill:#5136B1;}
	.st79{clip-path:url(#SVGID_16_);fill:#1B1A61;}
	.st80{clip-path:url(#SVGID_16_);fill:#7560D5;}
	.st81{clip-path:url(#SVGID_16_);fill:#000126;}
	.st82{clip-path:url(#SVGID_16_);fill:#050238;}
	.st83{clip-path:url(#SVGID_16_);fill:#221279;}
	.st84{clip-path:url(#SVGID_16_);fill:#9788F5;}
	.st85{clip-path:url(#SVGID_16_);fill:#8877E2;}
	.st86{clip-path:url(#SVGID_16_);fill:#0A0554;}
	.st87{clip-path:url(#SVGID_16_);fill:#1B1162;}
	.st88{clip-path:url(#SVGID_16_);fill:#553BB2;}
	.st89{clip-path:url(#SVGID_16_);fill:#664EC7;}
	.st90{clip-path:url(#SVGID_16_);fill:#8779E3;}
	.st91{clip-path:url(#SVGID_16_);fill:#7F6BDB;}
	.st92{clip-path:url(#SVGID_16_);fill:#8A79E4;}
	.st93{clip-path:url(#SVGID_16_);fill:#0D0549;}
	.st94{clip-path:url(#SVGID_16_);fill:#3B2497;}
	.st95{clip-path:url(#SVGID_16_);fill:#2F1782;}
	.st96{clip-path:url(#SVGID_16_);fill:#37238E;}
	.st97{clip-path:url(#SVGID_16_);fill:#1D0F6F;}
	.st98{clip-path:url(#SVGID_16_);fill:#211370;}
	.st99{clip-path:url(#SVGID_16_);fill:#725AD4;}
	.st100{clip-path:url(#SVGID_16_);fill:#0A0A38;}
	.st101{clip-path:url(#SVGID_16_);fill:#8C7BE6;}
	.st102{clip-path:url(#SVGID_16_);fill:#9687F2;}
	.st103{clip-path:url(#SVGID_16_);fill:#5D41B9;}
	.st104{clip-path:url(#SVGID_16_);fill:#573DB8;}
	.st105{clip-path:url(#SVGID_16_);fill:#4C31A8;}
	.st106{clip-path:url(#SVGID_16_);fill:#150B57;}
	.st107{clip-path:url(#SVGID_16_);fill:#190B63;}
	.st108{clip-path:url(#SVGID_16_);fill:#A695F6;}
	.st109{clip-path:url(#SVGID_16_);fill:#8D7AEF;}
	.st110{clip-path:url(#SVGID_16_);fill:#7962D7;}
	.st111{clip-path:url(#SVGID_16_);fill:#050236;}
	.st112{clip-path:url(#SVGID_16_);fill:#060232;}
	.st113{clip-path:url(#SVGID_16_);fill:#3A2290;}
	.st114{clip-path:url(#SVGID_16_);fill:#5136AC;}
	.st115{clip-path:url(#SVGID_16_);fill:#13065A;}
	.st116{clip-path:url(#SVGID_16_);fill:#1A096A;}
	.st117{clip-path:url(#SVGID_16_);fill:#8E7DE8;}
	.st118{clip-path:url(#SVGID_16_);fill:#7863D8;}
	.st119{clip-path:url(#SVGID_16_);fill:#9787F2;}
	.st120{clip-path:url(#SVGID_16_);fill:#5B3DB6;}
	.st121{clip-path:url(#SVGID_16_);fill:#5031A9;}
	.st122{clip-path:url(#SVGID_16_);fill:#381C88;}
	.st123{clip-path:url(#SVGID_16_);fill:#060332;}
	.st124{clip-path:url(#SVGID_16_);fill:#150657;}
	.st125{clip-path:url(#SVGID_16_);fill:#170D56;}
	.st126{clip-path:url(#SVGID_16_);fill:#040439;}
	.st127{clip-path:url(#SVGID_16_);fill:#9883F4;}
	.st128{clip-path:url(#SVGID_16_);fill:#7961D0;}
	.st129{clip-path:url(#SVGID_16_);fill:#836BE8;}
	.st130{clip-path:url(#SVGID_16_);fill:#351C87;}
	.st131{clip-path:url(#SVGID_16_);fill:#110D46;}
	.st132{clip-path:url(#SVGID_16_);fill:#160E4E;}
	.st133{clip-path:url(#SVGID_16_);fill:#9A88F1;}
	.st134{clip-path:url(#SVGID_16_);fill:#6B4ECC;}
	.st135{clip-path:url(#SVGID_16_);fill:#7658D0;}
	.st136{clip-path:url(#SVGID_16_);fill:#3A2982;}
	.st137{clip-path:url(#SVGID_16_);fill:#9F8CF7;}
	.st138{clip-path:url(#SVGID_16_);fill:#6C51CB;}
	.st139{clip-path:url(#SVGID_16_);fill:#5C44BD;}
	.st140{clip-path:url(#SVGID_16_);fill:#241B63;}
	.st141{clip-path:url(#SVGID_16_);fill:#795CCF;}
	.st142{clip-path:url(#SVGID_16_);fill:#432993;}
	.st143{clip-path:url(#SVGID_16_);fill:#2C1677;}
	.st144{clip-path:url(#SVGID_16_);fill:#12084D;}
	.st145{clip-path:url(#SVGID_16_);fill:#07023A;}
	.st146{clip-path:url(#SVGID_16_);fill:#9984EC;}
	.st147{clip-path:url(#SVGID_16_);fill:#7857CD;}
	.st148{clip-path:url(#SVGID_16_);fill:#6442BB;}
	.st149{clip-path:url(#SVGID_16_);fill:#502D9F;}
	.st150{clip-path:url(#SVGID_16_);fill:#311C80;}
	.st151{clip-path:url(#SVGID_16_);fill:#211169;}
	.st152{clip-path:url(#SVGID_16_);fill:#12054F;}
	.st153{clip-path:url(#SVGID_16_);fill:#957FE1;}
	.st154{clip-path:url(#SVGID_16_);fill:#6140B8;}
	.st155{clip-path:url(#SVGID_16_);fill:#492A9B;}
	.st156{clip-path:url(#SVGID_16_);fill:#381C85;}
	.st157{clip-path:url(#SVGID_16_);fill:#957DEB;}
	.st158{clip-path:url(#SVGID_16_);fill:#A48EF7;}
	.st159{clip-path:url(#SVGID_16_);fill:#7F62D1;}
	.st160{clip-path:url(#SVGID_16_);fill:#070344;}
	.st161{clip-path:url(#SVGID_16_);fill:#27186B;}
	.st162{clip-path:url(#SVGID_16_);fill:#714EC0;}
	.st163{clip-path:url(#SVGID_16_);fill:#2E177C;}
	.st164{clip-path:url(#SVGID_16_);fill:#391F88;}
	.st165{clip-path:url(#SVGID_16_);fill:#AA8EF6;}
	.st166{clip-path:url(#SVGID_16_);fill:#9E81EE;}
	.st167{clip-path:url(#SVGID_16_);fill:#0C044B;}
	.st168{clip-path:url(#SVGID_16_);fill:#28186F;}
	.st169{clip-path:url(#SVGID_16_);fill:#6443B7;}
	.st170{clip-path:url(#SVGID_16_);fill:#714DC0;}
	.st171{clip-path:url(#SVGID_16_);fill:#0F0555;}
	.st172{clip-path:url(#SVGID_16_);fill:#8361CC;}
	.st173{clip-path:url(#SVGID_16_);fill:#8767D7;}
	.st174{clip-path:url(#SVGID_16_);fill:#4C2E9C;}
	.st175{clip-path:url(#SVGID_16_);fill:#5A38A9;}
	.st176{clip-path:url(#SVGID_16_);fill:#A283EB;}
	.st177{clip-path:url(#SVGID_16_);fill:#7A56C9;}
	.st178{clip-path:url(#SVGID_16_);fill:#825FCF;}
	.st179{clip-path:url(#SVGID_16_);fill:#2C187B;}
	.st180{clip-path:url(#SVGID_16_);fill:#4F358D;}
	.st181{clip-path:url(#SVGID_16_);fill:#A888F0;}
	.st182{clip-path:url(#SVGID_16_);fill:#301E82;}
	.st183{clip-path:url(#SVGID_16_);fill:#190C66;}
	.st184{clip-path:url(#SVGID_16_);fill:#1E1168;}
	.st185{clip-path:url(#SVGID_16_);fill:#5834A5;}
	.st186{clip-path:url(#SVGID_16_);fill:#734EBF;}
	.st187{clip-path:url(#SVGID_16_);fill:#A07CE6;}
	.st188{clip-path:url(#SVGID_16_);fill:#AE86F2;}
	.st189{clip-path:url(#SVGID_16_);fill:#9A77E0;}
	.st190{clip-path:url(#SVGID_16_);fill:#916EDA;}
	.st191{clip-path:url(#SVGID_16_);fill:#201471;}
	.st192{clip-path:url(#SVGID_16_);fill:#171165;}
	.st193{clip-path:url(#SVGID_16_);fill:#4C2F9E;}
	.st194{clip-path:url(#SVGID_16_);fill:#3C228D;}
	.st195{clip-path:url(#SVGID_16_);fill:#855DCA;}
	.st196{clip-path:url(#SVGID_16_);fill:#885EC8;}
	.st197{clip-path:url(#SVGID_16_);fill:#AC80EC;}
	.st198{clip-path:url(#SVGID_16_);fill:#7D58C9;}
	.st199{clip-path:url(#SVGID_16_);fill:#774CB8;}
	.st200{clip-path:url(#SVGID_16_);fill:#38258D;}
	.st201{clip-path:url(#SVGID_16_);fill:#2E1579;}
	.st202{clip-path:url(#SVGID_16_);fill:#A97CE8;}
	.st203{clip-path:url(#SVGID_16_);fill:#6B3FAD;}
	.st204{clip-path:url(#SVGID_16_);fill:#5936A5;}
	.st205{clip-path:url(#SVGID_16_);fill:#A377E6;}
	.st206{clip-path:url(#SVGID_16_);fill:#9662D1;}
	.st207{clip-path:url(#SVGID_16_);fill:#312586;}
	.st208{clip-path:url(#SVGID_16_);fill:#241275;}
	.st209{clip-path:url(#SVGID_16_);fill:#8151BE;}
	.st210{clip-path:url(#SVGID_16_);fill:#3F268F;}
	.st211{clip-path:url(#SVGID_16_);fill:#5D329C;}
	.st212{clip-path:url(#SVGID_16_);fill:#AC78E6;}
	.st213{clip-path:url(#SVGID_16_);fill:#9964D0;}
	.st214{clip-path:url(#SVGID_16_);fill:#281E81;}
	.st215{clip-path:url(#SVGID_16_);fill:#29157B;}
	.st216{clip-path:url(#SVGID_16_);fill:#32258D;}
	.st217{clip-path:url(#SVGID_16_);fill:#3F339C;}
	.st218{clip-path:url(#SVGID_16_);fill:#7F5AC8;}
	.st219{clip-path:url(#SVGID_16_);fill:#6742B3;}
	.st220{clip-path:url(#SVGID_16_);fill:#664BBF;}
	.st221{clip-path:url(#SVGID_16_);fill:#9F6EDC;}
	.st222{clip-path:url(#SVGID_16_);fill:#A575E5;}
	.st223{clip-path:url(#SVGID_16_);fill:#AF75E1;}
	.st224{clip-path:url(#SVGID_16_);fill:#B37FED;}
	.st225{clip-path:url(#SVGID_16_);fill:#472994;}
	.st226{clip-path:url(#SVGID_16_);fill:#46319D;}
	.st227{clip-path:url(#SVGID_16_);fill:#9560CC;}
	.st228{clip-path:url(#SVGID_16_);fill:#9F70DA;}
	.st229{clip-path:url(#SVGID_16_);fill:#8A5ECA;}
	.st230{clip-path:url(#SVGID_16_);fill:#AE6AD6;}
	.st231{clip-path:url(#SVGID_16_);fill:#7C54BE;}
	.st232{clip-path:url(#SVGID_16_);fill:#B26DDE;}
	.st233{clip-path:url(#SVGID_16_);fill:#B078E7;}
	.st234{clip-path:url(#SVGID_16_);fill:#AB71DF;}
	.st235{clip-path:url(#SVGID_16_);fill:#392A92;}
	.st236{clip-path:url(#SVGID_16_);fill:#412C94;}
	.st237{clip-path:url(#SVGID_16_);fill:#5E3FA9;}
	.st238{clip-path:url(#SVGID_16_);fill:#5C3EAC;}
	.st239{clip-path:url(#SVGID_16_);fill:#995CC7;}
	.st240{clip-path:url(#SVGID_16_);fill:#A060CB;}
	.st241{clip-path:url(#SVGID_16_);fill:#2E1F87;}
	.st242{clip-path:url(#SVGID_16_);fill:#30268F;}
	.st243{clip-path:url(#SVGID_16_);fill:#8854C0;}
	.st244{clip-path:url(#SVGID_16_);fill:#A77EEE;}
	.st245{clip-path:url(#SVGID_16_);fill:#4836A0;}
	.st246{clip-path:url(#SVGID_16_);fill:#583BA5;}
	.st247{clip-path:url(#SVGID_16_);fill:#C27CF3;}
	.st248{clip-path:url(#SVGID_16_);fill:#B869D9;}
	.st249{clip-path:url(#SVGID_16_);fill:#8F63CC;}
	.st250{clip-path:url(#SVGID_16_);fill:#734BB3;}
	.st251{clip-path:url(#SVGID_16_);fill:#6F4BB4;}
	.st252{clip-path:url(#SVGID_16_);fill:#A25BC9;}
	.st253{clip-path:url(#SVGID_16_);fill:#B166D7;}
	.st254{clip-path:url(#SVGID_16_);fill:#6248AD;}
	.st255{clip-path:url(#SVGID_16_);fill:#A45FCB;}
	.st256{clip-path:url(#SVGID_16_);fill:#A56AD5;}
	.st257{clip-path:url(#SVGID_16_);fill:#955AC4;}
	.st258{clip-path:url(#SVGID_16_);fill:#544AB4;}
	.st259{clip-path:url(#SVGID_16_);fill:#5A47B1;}
	.st260{clip-path:url(#SVGID_16_);fill:#5140AA;}
	.st261{clip-path:url(#SVGID_16_);fill:#9365CB;}
	.st262{clip-path:url(#SVGID_16_);fill:#AE77DE;}
	.st263{clip-path:url(#SVGID_16_);fill:#C26EE6;}
	.st264{clip-path:url(#SVGID_16_);fill:#B25DCF;}
	.st265{clip-path:url(#SVGID_16_);fill:#8C63C4;}
	.st266{clip-path:url(#SVGID_16_);fill:#8F6ED3;}
	.st267{clip-path:url(#SVGID_16_);fill:#886DD4;}
	.st268{clip-path:url(#SVGID_16_);fill:#B970DE;}
	.st269{clip-path:url(#SVGID_16_);fill:#574BB4;}
	.st270{clip-path:url(#SVGID_16_);fill:#5245A9;}
	.st271{clip-path:url(#SVGID_16_);fill:#BB5DD3;}
	.st272{clip-path:url(#SVGID_16_);fill:#8064C3;}
	.st273{clip-path:url(#SVGID_16_);fill:#715BBF;}
	.st274{clip-path:url(#SVGID_16_);fill:#715FC4;}
	.st275{clip-path:url(#SVGID_16_);fill:#A86BD1;}
	.st276{clip-path:url(#SVGID_16_);fill:#B36DD9;}
	.st277{clip-path:url(#SVGID_16_);fill:#C663D8;}
	.st278{clip-path:url(#SVGID_16_);fill:#BF5BD1;}
	.st279{clip-path:url(#SVGID_16_);fill:#B056C6;}
	.st280{clip-path:url(#SVGID_16_);fill:#B964D5;}
	.st281{clip-path:url(#SVGID_16_);fill:#5B50B1;}
	.st282{clip-path:url(#SVGID_16_);fill:#976DCC;}
	.st283{clip-path:url(#SVGID_16_);fill:#706AC9;}
	.st284{clip-path:url(#SVGID_16_);fill:#433B9A;}
	.st285{clip-path:url(#SVGID_16_);fill:#8067BC;}
	.st286{clip-path:url(#SVGID_16_);fill:#A280DB;}
	.st287{clip-path:url(#SVGID_16_);fill:#A558BE;}
	.st288{clip-path:url(#SVGID_16_);fill:#BB64D4;}
	.st289{clip-path:url(#SVGID_16_);fill:#816EC1;}
	.st290{clip-path:url(#SVGID_16_);fill:#7E6FCD;}
	.st291{clip-path:url(#SVGID_16_);fill:#776BC4;}
	.st292{clip-path:url(#SVGID_16_);fill:#B27ADC;}
	.st293{clip-path:url(#SVGID_16_);fill:#A976D3;}
	.st294{clip-path:url(#SVGID_16_);fill:#BB50C6;}
	.st295{clip-path:url(#SVGID_16_);fill:#C456CE;}
	.st296{clip-path:url(#SVGID_16_);fill:#B348BE;}
	.st297{clip-path:url(#SVGID_16_);fill:#8685E6;}
	.st298{clip-path:url(#SVGID_16_);fill:#B797EE;}
	.st299{clip-path:url(#SVGID_16_);fill:#CA6FE1;}
	.st300{clip-path:url(#SVGID_16_);fill:#E47DF5;}
	.st301{clip-path:url(#SVGID_16_);fill:#D07AE7;}
	.st302{clip-path:url(#SVGID_16_);fill:#BA6FD3;}
	.st303{clip-path:url(#SVGID_16_);fill:#CE8CEF;}
	.st304{clip-path:url(#SVGID_16_);fill:#9282CF;}
	.st305{clip-path:url(#SVGID_16_);fill:#A289D6;}
	.st306{clip-path:url(#SVGID_16_);fill:#C285E2;}
	.st307{clip-path:url(#SVGID_16_);fill:#AE7CD2;}
	.st308{clip-path:url(#SVGID_16_);fill:#C89FF5;}
	.st309{clip-path:url(#SVGID_16_);fill:#7A79D0;}
	.st310{clip-path:url(#SVGID_16_);fill:#9D95E4;}
	.st311{clip-path:url(#SVGID_16_);fill:#827ACC;}
	.st312{clip-path:url(#SVGID_16_);fill:#8981DA;}
	.st313{clip-path:url(#SVGID_16_);fill:#C552CA;}
	.st314{clip-path:url(#SVGID_16_);fill:#B544B2;}
	.st315{clip-path:url(#SVGID_16_);fill:#8081D0;}
	.st316{clip-path:url(#SVGID_16_);fill:#8B8DD8;}
	.st317{clip-path:url(#SVGID_16_);fill:#BE5EC6;}
	.st318{clip-path:url(#SVGID_16_);fill:#A890D7;}
	.st319{clip-path:url(#SVGID_16_);fill:#B997E2;}
	.st320{clip-path:url(#SVGID_16_);fill:#C14AC0;}
	.st321{clip-path:url(#SVGID_16_);fill:#CA58D2;}
	.st322{clip-path:url(#SVGID_16_);fill:#A29DDF;}
	.st323{clip-path:url(#SVGID_16_);fill:#AA9ADB;}
	.st324{clip-path:url(#SVGID_16_);fill:#C581DA;}
	.st325{clip-path:url(#SVGID_16_);fill:#C572D2;}
	.st326{clip-path:url(#SVGID_16_);fill:#BF45B7;}
	.st327{clip-path:url(#SVGID_16_);fill:#D65DD9;}
	.st328{clip-path:url(#SVGID_16_);fill:#C959CD;}
	.st329{clip-path:url(#SVGID_16_);fill:#BF55C1;}
	.st330{clip-path:url(#SVGID_16_);fill:#989CE2;}
	.st331{clip-path:url(#SVGID_16_);fill:#C39DE6;}
	.st332{clip-path:url(#SVGID_16_);fill:#D9A6F6;}
	.st333{clip-path:url(#SVGID_16_);fill:#D37DE1;}
	.st334{clip-path:url(#SVGID_16_);fill:#8A92D9;}
	.st335{clip-path:url(#SVGID_16_);fill:#8E93D4;}
	.st336{clip-path:url(#SVGID_16_);fill:#C2B7F6;}
	.st337{clip-path:url(#SVGID_16_);fill:#CD52CA;}
	.st338{clip-path:url(#SVGID_16_);fill:#D39AE9;}
	.st339{clip-path:url(#SVGID_16_);fill:#B3B6F1;}
	.st340{clip-path:url(#SVGID_16_);fill:#AEB3F2;}
	.st341{clip-path:url(#SVGID_16_);fill:#E860D1;}
	.st342{clip-path:url(#SVGID_16_);fill:#C459C4;}
	.st343{clip-path:url(#SVGID_16_);fill:#D471DE;}
	.st344{clip-path:url(#SVGID_16_);fill:#9EA7E2;}
	.st345{clip-path:url(#SVGID_16_);fill:#C2A4E2;}
	.st346{clip-path:url(#SVGID_16_);fill:#C1AFEA;}
	.st347{clip-path:url(#SVGID_16_);fill:#D885E7;}
	.st348{clip-path:url(#SVGID_16_);fill:#D790E8;}
	.st349{clip-path:url(#SVGID_16_);fill:#CAC5F9;}
	.st350{clip-path:url(#SVGID_16_);fill:#BFC2F5;}
	.st351{clip-path:url(#SVGID_16_);fill:#B3BCF1;}
	.st352{clip-path:url(#SVGID_16_);fill:#A9B5E6;}
	.st353{clip-path:url(#SVGID_16_);fill:#CB4FC3;}
	.st354{clip-path:url(#SVGID_16_);fill:#CB52C3;}
	.st355{clip-path:url(#SVGID_16_);fill:#CD4EC6;}
	.st356{clip-path:url(#SVGID_16_);fill:#D5A3EE;}
	.st357{clip-path:url(#SVGID_16_);fill:#CDA9E7;}
	.st358{clip-path:url(#SVGID_16_);fill:#D653D0;}
	.st359{clip-path:url(#SVGID_16_);fill:#CE4BC0;}
	.st360{clip-path:url(#SVGID_16_);fill:#C449BA;}
	.st361{clip-path:url(#SVGID_16_);fill:#E26EE2;}
	.st362{clip-path:url(#SVGID_16_);fill:#D068D0;}
	.st363{clip-path:url(#SVGID_16_);fill:#D06FD0;}
	.st364{clip-path:url(#SVGID_16_);fill:#CD72CE;}
	.st365{clip-path:url(#SVGID_16_);fill:#E0A9F8;}
	.st366{clip-path:url(#SVGID_16_);fill:#CD8ADC;}
	.st367{clip-path:url(#SVGID_16_);fill:#CC80D3;}
	.st368{clip-path:url(#SVGID_16_);fill:#D9A7EC;}
	.st369{clip-path:url(#SVGID_16_);fill:#C69CD9;}
	.st370{clip-path:url(#SVGID_16_);fill:#DEC5F6;}
	.st371{clip-path:url(#SVGID_16_);fill:#CCBDF2;}
	.st372{clip-path:url(#SVGID_16_);fill:#C5BEED;}
	.st373{clip-path:url(#SVGID_16_);fill:#C9C6EF;}
	.st374{clip-path:url(#SVGID_16_);fill:#BBBEEA;}
	.st375{clip-path:url(#SVGID_16_);fill:#C6D1FA;}
	.st376{clip-path:url(#SVGID_16_);fill:#C8D2FA;}
	.st377{clip-path:url(#SVGID_16_);fill:#A4AFDB;}
	.st378{clip-path:url(#SVGID_16_);fill:#BFCAF8;}
	.st379{clip-path:url(#SVGID_16_);fill:#A3B2E6;}
	.st380{clip-path:url(#SVGID_16_);fill:#A7B6E9;}
	.st381{clip-path:url(#SVGID_16_);fill:#CF4CC4;}
	.st382{clip-path:url(#SVGID_16_);fill:#D04DC9;}
	.st383{clip-path:url(#SVGID_16_);fill:#99A8DA;}
	.st384{clip-path:url(#SVGID_16_);fill:none;}
	.st385{opacity:0.6;fill:#3B1972;}
	.st386{fill:#823FC7;}
	.st387{fill:#A4672F;}
	.st388{opacity:0.5;}
</style>
<g class="st388">
	<path id="path4951_2_" class="st2" d="M1.51,17.44l36.2,15.18l-0.53,1.26L4.02,19.97l26.62,64.64l38.39,2.27l13.79-4.28l0.59-3.33
		L72.33,48.61l-18.69-7.84l0.53-1.25l19.24,8.07l11.41,31.57l-0.8,4.5l-14.82,4.6L29.7,85.92L1.51,17.44z"/>
	<path id="path4953_2_" class="st2" d="M118.1,53.29l0.66,1.18l-33.95,25L84,78.38l29.62-21.81L80.91,69.76L80.4,68.5L118.1,53.29z"
		/>
	<path id="path4955_2_" class="st2" d="M58.9,24.05l-0.78,0.03c0,0-3.79,0.18-7.99,0.81c-2.1,0.31-4.3,0.74-6.2,1.32
		c-1.9,0.58-3.52,1.28-4.46,2.37C37.35,31,34.82,36.6,32.7,41.7c-2.12,5.09-3.75,9.63-3.75,9.63l-0.04,0.12l0.58,33.55l1.36-0.03
		l-0.56-32.56c0.16-0.06,4.96-1.89,10.38-4.31c2.75-1.23,5.63-2.59,8.07-3.92c2.43-1.33,4.42-2.6,5.48-3.82
		c1.92-2.2,2.99-6.04,3.67-9.38c0.69-3.34,0.93-6.17,0.93-6.17L58.9,24.05L58.9,24.05z M56.56,30.71c-0.67,3.25-1.82,6.99-3.37,8.76
		c-0.8,0.92-2.73,2.21-5.11,3.52c-2.38,1.31-5.23,2.66-7.97,3.88c-4.96,2.21-8.69,3.63-9.5,3.94c0.29-0.8,1.45-4.05,3.34-8.58
		c2.1-5.06,4.77-10.72,6.53-12.74c0.61-0.69,2.04-1.41,3.84-1.96c1.8-0.55,3.94-0.97,6-1.28c3.68-0.55,6.34-0.67,7.02-0.71
		C57.29,26.14,57.14,27.91,56.56,30.71z"/>
	<path id="path4957_2_" class="st2" d="M40.48,28.91c0,0,0.27,1.62,0.73,3.6c0.46,1.98,1.14,4.33,1.85,5.63
		c0.5,0.9,1.66,2.23,2.68,3.28c1.02,1.05,1.91,1.84,1.91,1.84l-0.91,1.01c0,0-0.91-0.82-1.97-1.9c-1.06-1.08-2.26-2.41-2.9-3.58
		c-0.86-1.57-1.51-3.94-1.98-5.97c-0.47-2.03-0.75-3.69-0.75-3.69L40.48,28.91z"/>
	<path id="path4959_2_" class="st2" d="M42.6,37.27c3.3,2.15,6.35,2.82,11.38,1.81l0.27,1.33c-5.26,1.06-8.87,0.3-12.39-2
		L42.6,37.27z"/>
	<path id="path4961_2_" class="st2" d="M58.89,19.71l-1.35,5.39l-1.32-0.33l0.84-3.35c-1.52,0.27-8.22,1.49-11.84,2.77
		c-1.13,0.4-2.1,1.46-2.76,2.46c-0.65,1-0.99,1.87-0.99,1.87l-1.27-0.48c0,0,0.38-1.01,1.12-2.13c0.74-1.13,1.85-2.43,3.44-2.99
		c4.33-1.53,13.09-3.02,13.09-3.02L58.89,19.71z"/>
	<path id="path4963_2_" class="st2" d="M25.87,32.49c0.38,0.5,0.59,1.15,0.59,1.86c0,0.71-0.21,1.36-0.59,1.86
		c-0.38,0.5-0.97,0.87-1.64,0.87s-1.26-0.36-1.64-0.87c-0.38-0.5-0.59-1.15-0.59-1.86c0-0.7,0.21-1.36,0.59-1.86
		c0.38-0.5,0.97-0.87,1.64-0.87S25.49,31.99,25.87,32.49z M23.67,33.32c-0.18,0.24-0.32,0.61-0.32,1.03s0.14,0.8,0.32,1.03
		c0.18,0.24,0.37,0.33,0.56,0.33s0.38-0.09,0.56-0.33c0.18-0.24,0.32-0.61,0.32-1.03s-0.14-0.8-0.32-1.03
		c-0.18-0.24-0.37-0.33-0.56-0.33S23.85,33.08,23.67,33.32z"/>
	<path id="path4963-0_2_" class="st2" d="M11.98,21.88c0.38,0,0.68,0.3,0.68,0.68c0,0.07-0.01,0.14-0.03,0.2
		c-0.89,3.07-2.77,5.6-5.25,6.95c-0.33,0.19-0.74,0.07-0.93-0.25c-0.19-0.33-0.07-0.74,0.25-0.93c0.01,0,0.01-0.01,0.02-0.01
		c2.11-1.15,3.79-3.37,4.6-6.14C11.4,22.09,11.67,21.88,11.98,21.88z"/>
	<path id="path5001_2_" class="st2" d="M10.02,29.55c0.2,0.02,0.38,0.12,0.5,0.28l3.69,4.95c0.23,0.3,0.16,0.73-0.14,0.95
		c-0.3,0.23-0.73,0.16-0.95-0.14c0,0,0,0,0,0l-3.69-4.95c-0.23-0.3-0.18-0.72,0.12-0.95C9.69,29.58,9.86,29.53,10.02,29.55z"/>
	<path id="path5003_2_" class="st2" d="M12.09,27.59c0.15,0.01,0.3,0.07,0.41,0.17l4.21,3.63c0.28,0.25,0.32,0.68,0.07,0.96
		c-0.25,0.28-0.68,0.32-0.96,0.07l-4.21-3.63c-0.29-0.24-0.33-0.67-0.08-0.96C11.67,27.67,11.87,27.58,12.09,27.59z"/>
	<path id="path5005_2_" class="st2" d="M13.22,25.23c0.11,0,0.21,0.03,0.31,0.08l5.37,2.77c0.34,0.16,0.49,0.56,0.33,0.9
		c-0.16,0.34-0.56,0.49-0.9,0.33c-0.02-0.01-0.03-0.02-0.05-0.03l-5.37-2.76c-0.34-0.16-0.48-0.57-0.31-0.91
		C12.71,25.37,12.95,25.22,13.22,25.23z"/>
</g>
</svg>
